<?xml version="1.0" encoding="iso-8859-1"?>
<!-- Uploaded to: SVG Repo, www.svgrepo.com, Generator: SVG Repo Mixer Tools -->
<svg fill="#000000" version="1.1" id="Layer_1" xmlns="http://www.w3.org/2000/svg" xmlns:xlink="http://www.w3.org/1999/xlink" 
	 viewBox="0 0 512 512" xml:space="preserve">
<g>
	<g>
		<rect x="206.247" y="379.48" width="99.506" height="33.391"/>
	</g>
</g>
<g>
	<g>
		<path d="M343.451,172.042c-17.138,0-33.952,2.994-48.624,8.661l12.031,31.149c10.873-4.198,23.528-6.419,36.594-6.419
			s25.72,2.219,36.594,6.419l12.031-31.149C377.403,175.037,360.589,172.042,343.451,172.042z"/>
	</g>
</g>
<g>
	<g>
		<path d="M484.039,193.135c-10.321-7.789-21.998-11.976-34.029-12.418c-5.937-42.093-20.317-78.838-42.459-107.871
			C372.907,27.419,320.502,3.408,256,3.408S139.093,27.42,104.449,72.846c-14.176,18.587-25.165,40.338-32.801,64.624H54.614v33.391
			h8.932c-0.573,3.25-1.09,6.538-1.557,9.856c-12.031,0.442-23.707,4.629-34.028,12.418C10.714,206.15,0,227.436,0,248.687
			c0,29.302,25.646,97.968,62.188,118.695c7.59,4.305,15.443,6.458,23.184,6.458c1.358,0,2.711-0.09,4.06-0.223
			c6.427,14.765,13.788,28.84,22.018,41.957c37.636,59.983,88.972,93.017,144.55,93.017c55.579,0,106.913-33.034,144.549-93.017
			c8.23-13.116,15.591-27.193,22.018-41.956c1.349,0.132,2.702,0.223,4.061,0.223c7.739,0,15.594-2.154,23.184-6.458
			C486.354,346.655,512,277.989,512,248.687C512,227.437,501.286,206.15,484.039,193.135z M47.539,296.942
			c-9.72-20.749-14.148-39.56-14.148-48.255c0-10.824,5.763-22.167,14.683-28.899c2.76-2.084,6.482-4.195,11.002-5.166
			c-0.128,3.85-0.195,7.733-0.195,11.652c0,37.098,5.875,74.784,16.771,110.074C66.38,329.537,56.088,315.191,47.539,296.942z
			 M256,475.199c-96.486,0-163.726-131.187-163.726-248.924c0-19.391,1.84-38,5.38-55.414h54.178v10.716
			c-29.746,7.475-51.84,34.436-51.84,66.469c0,37.791,30.745,68.536,68.536,68.536c37.79,0,68.535-30.745,68.535-68.536
			c0-32.032-22.093-58.994-51.839-66.469V137.47h-78.138c6.173-16.653,14.188-31.622,23.915-44.376
			C159.488,55.74,201.544,36.799,256,36.799s96.512,18.941,125,56.295c24.973,32.746,38.726,80.045,38.726,133.18
			C419.726,344.013,352.487,475.199,256,475.199z M168.527,212.903c19.378,0,35.143,15.765,35.143,35.143
			c0,19.378-15.765,35.144-35.143,35.144c-19.378,0-35.144-15.766-35.144-35.144C133.383,228.668,149.149,212.903,168.527,212.903z
			 M464.461,296.942c-8.549,18.248-18.841,32.594-28.114,39.407c10.897-35.289,16.771-72.977,16.771-110.074
			c0-3.919-0.067-7.802-0.195-11.652c4.519,0.971,8.241,3.082,11.002,5.166c8.92,6.732,14.683,18.075,14.683,28.899
			C478.609,257.382,474.181,276.193,464.461,296.942z"/>
	</g>
</g>
<g>
	<g>
		<path d="M369.204,242.96c-1.551,1.2-3.491,1.921-5.603,1.921c-5.065,0-9.171-4.106-9.171-9.17c0-3.66,2.148-6.808,5.248-8.28
			c-4.462-3.512-10.086-5.612-16.205-5.612c-14.486,0-26.229,11.744-26.229,26.229c0,14.486,11.744,26.229,26.229,26.229
			c14.485,0,26.229-11.743,26.229-26.229C369.702,246.306,369.528,244.606,369.204,242.96z"/>
	</g>
</g>
<g>
	<g>
		<circle cx="168.526" cy="248.052" r="26.229"/>
	</g>
</g>
</svg>