<svg width="1200" height="800" xmlns="http://www.w3.org/2000/svg" viewBox="-42.63582 -17.85075 369.51044 107.1045"><path d="M127.9493 26.3159L120.766 9.7238h6.6756l3.5577 9.3753 3.3549-9.3753h6.5406l-10.8871 25.241h-6.1704zm-95.2066-7.4502a12.714 12.714 0 011.8863.3334L37.9135.3477a31.2318 31.2318 0 00-1.8839-.335zm-9.9254 3.3405L8.355 9.9207a32.1747 32.1747 0 00-1.9075 2.299l14.4283 12.2632a12.7424 12.7424 0 011.9415-2.2767zM48.037 4.4519c-.5068-.3184-1.02-.6264-1.5451-.9161L37.041 20.089c.5409.2651 1.062.566 1.557.9026zm7.1408 6.1499L40.759 22.8452c.3545.3787.686.7788.994 1.1987l14.4125-12.237a30.608 30.608 0 00-.9877-1.2051zM19.0416 28.7395c.2614-1.1352.668-2.214 1.2041-3.2119l-17.712-6.5301a31.7832 31.7832 0 00-1.167 3.2309zm25.1804 2.8848c0 7.0827-5.71 12.823-12.7536 12.823-6.3085 0-11.5433-4.606-12.5681-10.655L1.2199 40.3129A32.0145 32.0145 0 002.66 44.3544l17.5723-6.4786L5.8885 50.078a31.8571 31.8571 0 002.9876 3.6207l13.413-11.3988-8.7499 15.41c1.3897.9773 2.859 1.8474 4.3994 2.5912l8.2224-14.4773-2.8692 16.4738c1.756.4779 3.572.8018 5.4353.9653l2.6766-15.3958 2.686 15.4046c1.9502-.1636 3.8499-.505 5.6824-1.0114l-2.491-14.2916 7.173 12.5809a31.489 31.489 0 005.5435-3.2738l-6.5833-11.5346 10.066 8.5473a31.8685 31.8685 0 004.2818-5.264l-8.9954-7.6335 11.0119 4.058c1.02-2.1242 1.808-4.3835 2.3426-6.7396l-9.6665-3.5588 10.272-.0016c.1327-1.1876.207-2.3927.207-3.6152 0-1.4162-.1003-2.807-.2772-4.1732H43.4972a12.8704 12.8704 0 01.7248 4.2637zm-25.5072 0c0-.712.0608-1.409.172-2.0894H.068C.0253 30.1962 0 30.8606 0 31.534c0 .6263.0229 1.2486.0584 1.867h18.7811c-.0797-.581-.1247-1.1725-.1247-1.7766zm5.3618-10.4446a12.6319 12.6319 0 012.2108-1.2717L16.8348 3.3302A31.5288 31.5288 0 0014.636 4.621zm.8448-20.809C25.6075.2231 26.304.1008 27.0066 0l3.2877 18.8585c-.7153.0651-1.414.189-2.0915.3692zM194.8418 62.72h2.8787V37.521h-2.8787zm53.2292-24.3828c.3608.3858.544.8748.544 1.4654 0 .589-.1832 1.0772-.544 1.4638-.3608.3843-.8354.5787-1.4228.5787s-1.0603-.1944-1.422-.5787c-.3608-.3866-.5408-.8748-.5408-1.4638 0-.5906.18-1.0796.5408-1.4654.3617-.385.8346-.5772 1.422-.5772.5874 0 1.062.1921 1.4228.5772zm-77.7109-11.0337v-9.5348c0-2.087-.7785-3.1317-2.337-3.1317-.8583 0-1.5065.289-1.9471.8668-.4414.5788-.66 1.4139-.66 2.503v9.2967h-6.0978V1.4242h6.0977v10.181c.4959-.77 1.1725-1.3662 2.0315-1.7877.8575-.42 1.8279-.6296 2.9127-.6296 2.0086 0 3.5285.6248 4.555 1.8727 1.028 1.2495 1.542 3.0992 1.542 5.5506v10.6922zm16.879 29.6778c-.2708.7844-.6608 1.4488-1.1677 1.9926-.5085.5454-1.1133.9717-1.8128 1.278-.6995.3041-1.4899.459-2.371.459-.878 0-1.67-.1549-2.3703-.459-.7003-.3063-1.3043-.7326-1.8128-1.278-.5069-.5438-.8977-1.2082-1.1677-1.9926-.2708-.7835-.4066-1.6527-.4066-2.6053 0-.9535.1358-1.822.4066-2.6046.27-.782.6608-1.4456 1.1677-1.9934.5085-.5422 1.1125-.9685 1.8128-1.2749.7004-.3072 1.4923-.4596 2.3703-.4596.8811 0 1.6715.1524 2.371.4596.6995.3064 1.3043.7327 1.8128 1.275.5069.5477.897 1.2113 1.1678 1.9933.2708.7827.4074 1.6511.4074 2.6046 0 .9526-.1366 1.8218-.4074 2.6053zm.8638-8.972c-.7769-.7946-1.6983-1.4186-2.7603-1.875-1.0619-.4541-2.2139-.6796-3.455-.6796-1.2404 0-2.3924.2255-3.4543.6796-1.062.4564-1.981 1.0804-2.7603 1.875-.7793.7947-1.3888 1.7354-1.8294 2.8245-.4398 1.0908-.6608 2.272-.6608 3.5422 0 1.2725.221 2.4513.6608 3.542.4406 1.0892 1.0501 2.0331 1.8294 2.827.7793.7946 1.6983 1.4193 2.7603 1.8726 1.062.4525 2.2139.6811 3.4543.6811 1.2411 0 2.3931-.2286 3.455-.681 1.062-.4534 1.9834-1.0781 2.7603-1.8727.7785-.7939 1.3896-1.7378 1.8286-2.827.4406-1.0907.6609-2.2695.6609-3.542 0-1.2702-.2203-2.4514-.6609-3.5422-.439-1.0891-1.05-2.0298-1.8286-2.8245zm57.1233 14.71h2.8787V45.9316h-2.8787zm-8.9393-51.6586c1.0272 1.2495 1.5412 3.0992 1.5412 5.5506v10.6922h-6.0969v-9.5348c0-2.087-.7785-3.1317-2.3379-3.1317-.8582 0-1.5056.289-1.947.8668-.4398.5788-.66 1.4139-.66 2.503v9.2967h-6.097V9.7317h5.962l.0678 2.1807c.4509-.8621 1.111-1.5329 1.9802-2.01.8693-.4763 1.88-.7145 3.032-.7145 2.0093 0 3.5276.6248 4.5556 1.8727zm-51.988 5.8316c.465-2.372 1.7425-3.5572 3.8261-3.5572 1.0138 0 1.8373.3096 2.469.9296.63.6223 1.0137 1.4971 1.152 2.6276zm12.4796 1.0812c0-1.3622-.1982-2.5832-.593-3.6612-.3963-1.0773-.9648-1.9973-1.7109-2.7586-.7453-.7597-1.6494-1.344-2.7082-1.7536-1.0627-.4073-2.2486-.612-3.556-.612-1.3565 0-2.5914.227-3.7102.6803-1.1172.4556-2.0828 1.0891-2.8953 1.9076-.8132.816-1.4393 1.7988-1.8791 2.9467-.4406 1.1447-.6609 2.4117-.6609 3.7954 0 1.4313.2416 2.7244.728 3.8819.4848 1.1574 1.1859 2.141 2.1002 2.9451.9135.8074 2.0197 1.4258 3.3185 1.8568 1.298.431 2.7603.6478 4.3875.6478 1.3533 0 2.6584-.1596 3.9115-.4763 1.2522-.3183 2.3197-.7732 3.1992-1.363l-1.9296-3.916c-.7233.3183-1.508.562-2.3545.7319-.8464.169-1.6083.254-2.2857.254-2.7777 0-5.2308-.997-5.8396-2.996h12.2744c.135-.566.2037-1.271.2037-2.1108zm14.497 3.5763c-.702.7708-1.6273 1.1574-2.7784 1.1574-1.1512 0-2.0774-.3866-2.7769-1.1574-.7011-.7717-1.0501-1.7822-1.0501-3.0317 0-1.248.349-2.2577 1.0501-3.031.6995-.7715 1.6257-1.1573 2.7769-1.1573 1.1511 0 2.0765.3858 2.7784 1.1574.698.7732 1.0493 1.783 1.0493 3.0309 0 1.2495-.3513 2.26-1.0493 3.0317zm4.097-9.7048c-.8583-.8407-1.8744-1.4932-3.0477-1.96-1.1764-.4644-2.4508-.697-3.8277-.697-1.3786 0-2.6537.2326-3.827.697-1.1749.4668-2.191 1.1193-3.0485 1.96-.8582.8391-1.5301 1.8267-2.0149 2.9619-.4864 1.1344-.7288 2.3712-.7288 3.7112 0 1.34.2424 2.5768.7288 3.7128.4848 1.1336 1.1567 2.122 2.015 2.9626.8574.8407 1.8735 1.4916 3.0484 1.9576 1.1733.4652 2.4484.6986 3.827.6986 1.377 0 2.6513-.2334 3.8277-.6986 1.1733-.466 2.1894-1.117 3.0477-1.9576.8574-.8407 1.5293-1.829 2.0141-2.9626.4864-1.136.7304-2.3728.7304-3.7128 0-1.34-.244-2.5768-.7304-3.7112-.4848-1.1352-1.1567-2.1228-2.0141-2.9619zM167.273 47.3114c1.0382 1.2353 1.5577 3.0484 1.5577 5.4315v9.977h-2.8787v-9.4681c0-1.8155-.3095-3.1444-.9308-3.982-.6214-.8414-1.6092-1.2606-2.9624-1.2606-1.4923 0-2.6498.4938-3.4733 1.4805-.8243.9876-1.2364 2.3657-1.2364 4.1384v9.0918h-2.8787V45.9317h2.7097l.0442 2.9793c.3853-.9256.9554-1.683 1.7165-2.2648 1.0398-.7946 2.3023-1.1916 3.7938-1.1916 1.9873 0 3.5009.6177 4.5383 1.8568zm48.7193 9.6698c-.2708.7844-.6617 1.4488-1.167 1.9926-.51.5454-1.114.9717-1.8144 1.278-.6995.3041-1.4899.459-2.3702.459-.8796 0-1.67-.1549-2.371-.459-.7004-.3063-1.3036-.7326-1.812-1.278-.5077-.5438-.8978-1.2082-1.1678-1.9926-.2716-.7835-.4066-1.6527-.4066-2.6053 0-.9535.135-1.822.4066-2.6046.27-.782.66-1.4456 1.1677-1.9934.5085-.5422 1.1117-.9685 1.812-1.2749.7012-.3072 1.4915-.4596 2.3711-.4596.8803 0 1.6707.1524 2.3702.4596.7004.3064 1.3044.7327 1.8144 1.275.5053.5477.8962 1.2113 1.167 1.9933.27.7827.4074 1.6511.4074 2.6046 0 .9526-.1374 1.8218-.4074 2.6053zm.8645-8.972c-.7793-.7946-1.6999-1.4186-2.7618-1.875-1.0612-.4541-2.2131-.6796-3.4543-.6796-1.2404 0-2.3924.2255-3.455.6796-1.0612.4564-1.981 1.0804-2.7604 1.875-.7785.7947-1.3888 1.7354-1.8286 2.8245-.4397 1.0908-.6608 2.272-.6608 3.5422 0 1.2725.221 2.4513.6608 3.542.4398 1.0892 1.0501 2.0331 1.8286 2.827.7793.7946 1.6992 1.4193 2.7603 1.8726 1.0627.4525 2.2147.6811 3.4551.6811 1.2412 0 2.3931-.2286 3.4543-.681 1.062-.4534 1.9825-1.0781 2.7618-1.8727.7777-.7939 1.3889-1.7378 1.8279-2.827.4405-1.0907.66-2.2695.66-3.542 0-1.2702-.2195-2.4514-.66-3.5422-.439-1.0891-1.0502-2.0298-1.8279-2.8245zM112.4212 21.3274c-.6561.7152-1.5017 1.0725-2.5408 1.0725-1.039 0-1.891-.3573-2.5574-1.0725-.6655-.7145-.9987-1.6512-.9987-2.8094 0-1.1582.3332-2.0934.9987-2.8086.6664-.716 1.5184-1.0725 2.5574-1.0725s1.8847.3564 2.5408 1.0725c.653.7152.9822 1.6504.9822 2.8086 0 1.1582-.3293 2.095-.9822 2.8094zM119.16 9.7317h-5.7235l-.067 2.0442c-.5204-.8185-1.2144-1.452-2.0829-1.9076-.87-.4533-1.835-.6804-2.8969-.6804-1.1511 0-2.2241.2382-3.2166.7145-.994.477-1.8578 1.136-2.5913 1.9759-.7343.8399-1.3036 1.8337-1.711 2.9793-.4058 1.1463-.6095 2.3894-.6095 3.7286 0 1.363.1974 2.611.593 3.7462.3947 1.136.9427 2.1108 1.643 2.9285.6996.8168 1.535 1.4527 2.506 1.906.9704.4557 2.0434.6827 3.2183.6827 1.1282 0 2.138-.223 3.0303-.6652.8922-.4422 1.5972-1.0725 2.1175-1.8902l.0671 2.0092h5.7235zm165.0788 48.4935c0 1.5662-.6158 2.803-1.846 3.712-1.2317.9066-2.885 1.3614-4.9607 1.3614-1.0849 0-2.1587-.1532-3.219-.4612-1.0596-.304-1.9076-.697-2.5392-1.1733l1.1867-2.0767c1.4646.8621 2.99 1.294 4.5715 1.294 1.2396 0 2.202-.2167 2.8771-.6486.6774-.4318 1.0162-1.0423 1.0162-1.837 0-.3635-.0497-.6834-.1516-.9541-.1027-.2723-.3009-.5184-.593-.7312-.2937-.2175-.7011-.427-1.2198-.6303-.5188-.2056-1.197-.4318-2.0308-.6827-1.831-.5438-3.14-1.2146-3.9304-2.0084-.7903-.7954-1.185-1.8377-1.185-3.1325 0-1.4527.559-2.6173 1.6761-3.4921 1.1172-.8724 2.6253-1.3099 4.5218-1.3099.859 0 1.7725.1302 2.743.3906.9718.2604 1.7835.5962 2.4388 1.0066l-1.118 2.0767c-1.399-.7057-2.7547-1.055-4.0638-1.055-2.281 0-3.4196.6898-3.4196 2.0759 0 .7041.259 1.2662.7778 1.6861.5187.4192 1.4227.8224 2.7113 1.209 1.0825.3168 1.9904.6462 2.7247.9876.7335.339 1.3265.72 1.7789 1.14.4508.4207.7722.8962.9648 1.4304.1935.5343.2882 1.1408.2882 1.8227zM98.1792 40.1764h-8.8066v22.5435h-3.0477V40.1764H77.519V37.555h20.6602zM84.8176 6.5992h1.9305c2.9348 0 4.4025 1.1813 4.4025 3.5421 0 2.4308-1.4898 3.6438-4.4704 3.6438h-1.8626zm3.3856 12.3276l4.5052 8.3766h7.4518l-6.4017-10.2493c1.242-.7263 2.2013-1.698 2.8795-2.9102.6775-1.217 1.0154-2.5387 1.0154-3.9684 0-1.3623-.2313-2.588-.694-3.6779-.4635-1.09-1.1236-2.0092-1.981-2.757-.8582-.751-1.9084-1.3226-3.1503-1.7203-1.242-.3969-2.6537-.5961-4.2336-.5961H78.315v25.8792h6.5027v-8.3433h1.8626zm16.2553 29.0142c.927 0 1.7055.165 2.3387.4945.6316.327 1.1393.7534 1.5238 1.275.3838.523.6593 1.1232.829 1.8067.1343.535.1998 1.082.2282 1.633h-10.163c.1618-1.4282.6087-2.5943 1.35-3.4898.9483-1.147 2.2456-1.7194 3.8933-1.7194zm5.6067-.1707c-.6664-.7272-1.4623-1.294-2.3876-1.7036-.9262-.4064-1.9423-.612-3.0485-.612-1.2199 0-2.337.2206-3.3532.6644-1.0154.443-1.891 1.067-2.6245 1.8727-.7343.805-1.3036 1.7718-1.7102 2.8951-.4066 1.124-.6103 2.3545-.6103 3.693 0 2.7467.8132 4.8869 2.439 6.4198 1.6256 1.5337 3.9066 2.299 6.8414 2.299 1.1962 0 2.3537-.1358 3.4717-.408 1.118-.2732 2.0607-.6487 2.829-1.1242l-1.085-2.1108c-1.7385.7018-3.4321 1.055-5.0799 1.055-2.146 0-3.7827-.5176-4.911-1.5496-.9404-.8597-1.482-2.1076-1.64-3.7302h12.884c.0229-.2263.0395-.4319.0513-.6105.0103-.1842.0166-.512.0166-.9883 0-1.2503-.1808-2.3903-.5416-3.4239-.3616-1.0336-.8756-1.9123-1.5412-2.638zm150.3489.1707c2.889 0 4.5265 1.4527 4.9118 4.3574.0434.1825.0718.3969.0829.6477.0008.0199.0008.0469.002.0667h-10.0755c.1603-1.3273.593-2.437 1.3035-3.3182.9349-1.171 2.1934-1.7536 3.7749-1.7536zm5.6903-.2215c-.6554-.7153-1.452-1.2718-2.3884-1.6703-.9372-.396-1.9818-.5946-3.1322-.5946-1.1748 0-2.2589.2207-3.2514.6645-.994.443-1.8522 1.067-2.5739 1.8727-.724.805-1.2885 1.7583-1.6952 2.861-.4042 1.1002-.6087 2.2974-.6087 3.5905 0 2.8158.7974 4.994 2.3876 6.5397 1.5917 1.544 3.8333 2.3156 6.723 2.3156 1.2412 0 2.4263-.1484 3.5562-.4421 1.129-.2953 2.1215-.7058 2.9797-1.2265l-1.0161-2.1783c-1.8057.8375-3.6004 1.259-5.3848 1.259-3.9232 0-6.0463-1.8084-6.3843-5.4164h12.7852c.0237-.2262.0403-.4302.0537-.6112.009-.1826.0142-.512.0142-.9868 0-1.2495-.1792-2.3783-.54-3.3897-.3608-1.009-.8709-1.871-1.5246-2.5871zM129.3713 59.8589l1.0501 2.1466c-.7232.4064-1.553.7263-2.4887.9534-.9372.2262-1.8807.3397-2.829.3397-1.3998 0-2.6702-.2032-3.8103-.6128-1.1401-.4088-2.1113-1.001-2.9127-1.771-.8014-.7725-1.4172-1.7037-1.846-2.7928-.4287-1.0892-.6426-2.303-.6426-3.6437 0-1.3385.2195-2.5594.66-3.6597.4398-1.1018 1.0549-2.0489 1.846-2.8435.7903-.7946 1.7441-1.413 2.8613-1.856 1.118-.4438 2.3418-.6645 3.6746-.6645 1.7836 0 3.5001.4533 5.1487 1.363l-1.118 2.1109c-.5867-.2945-1.2183-.5168-1.8965-.6652-.6775-.1469-1.3439-.22-1.9976-.22-1.9202 0-3.4377.5669-4.5557 1.7013-1.118 1.136-1.677 2.6689-1.677 4.598 0 1.998.57 3.5595 1.711 4.6828 1.1393 1.124 2.7144 1.6853 4.7246 1.6853 1.3091 0 2.6758-.285 4.0978-.8518zm18.0531-12.5332c1.0501 1.2511 1.5752 3.0547 1.5752 5.4172v9.977H146.12v-9.4681c0-1.8155-.3159-3.1444-.9483-3.982-.6324-.8414-1.6257-1.2606-2.9798-1.2606-1.4906 0-2.6489.4938-3.4732 1.4805-.8235.9876-1.2349 2.3657-1.2349 4.1384v9.0918h-2.8795V37.521h2.8795v11.1615c.405-.8677.9783-1.5781 1.7268-2.1203 1.0161-.7383 2.2352-1.1075 3.658-1.1075 1.9865 0 3.5048.624 4.5557 1.8711zm7.237-19.715c-.8914.158-1.812.2389-2.7602.2389-4.4034 0-6.6039-2.3045-6.6039-6.9144v-6.265h-2.9458V9.7317h2.9458v-4.528h6.0954v4.528h5.6903l-1.523 4.9385h-4.1673v5.2116c0 1.0653.1705 1.8092.5085 2.2291.3395.4207.915.6311 1.7275.6311.9254 0 1.8294-.1715 2.7105-.5112l.6096 4.7329c-.6332.2723-1.3952.4874-2.2874.647zm80.9094 31.313c-.5077.555-1.1125.9932-1.8128 1.3091-.6996.3191-1.456.478-2.2684.478-1.7599 0-3.1558-.5613-4.183-1.6854-1.0272-1.1233-1.5412-2.6507-1.5412-4.582 0-.9313.1413-1.7878.4232-2.569.2834-.7843.6798-1.4598 1.185-2.0274.511-.5684 1.1126-1.009 1.8129-1.3281.6995-.3176 1.4678-.4755 2.3031-.4755.8575 0 1.6423.1524 2.3537.4596.7114.3064 1.3161.7375 1.8128 1.2948.4958.5556.8795 1.2296 1.1511 2.0235.2709.7946.4059 1.6694.4059 2.622 0 .9098-.1453 1.7441-.4398 2.5046-.2937.7597-.694 1.4194-1.2025 1.9759zm1.441-9.9928c-.5346-.92-1.2104-1.679-2.034-2.2688-1.1298-.8042-2.427-1.2075-3.894-1.2075-1.1757 0-2.2645.2326-3.2696.6986-1.005.4652-1.8783 1.1003-2.6228 1.906-.747.8066-1.328 1.7528-1.7442 2.8436-.42 1.0891-.626 2.2712-.626 3.5405 0 1.3162.1894 2.5205.574 3.6112.3836 1.0892.9253 2.0196 1.6272 2.7936.6972.7684 1.5333 1.3717 2.5044 1.8028.9704.431 2.0434.6477 3.2183.6477 1.557 0 2.9229-.3874 4.097-1.1582.893-.5874 1.6138-1.3598 2.1673-2.3156v1.9759c0 2.4275-.5014 4.2105-1.5065 5.345-1.0027 1.1367-2.5684 1.7043-4.69 1.7043-2.4389 0-4.3464-.4438-5.7234-1.3281l-.747 2.3498c.2938.2262.6846.431 1.1702.6104.484.1842 1.0162.3422 1.591.4795.5755.1358 1.185.2421 1.8285.3223.6427.0802 1.2815.119 1.9155.119 6.0267 0 9.0412-3.3039 9.0412-9.9095V45.9317h-2.8108z" fill="#ce1126" fill-rule="evenodd"/></svg>