<svg xmlns="http://www.w3.org/2000/svg" enable-background="new 0 0 64 64" viewBox="0 0 64 64" id="SpaceStation">
  <path d="M42.37 26.04c0-4.44-2.79-8.23-6.72-9.7l1.07 10.7c.01.03.01.06.01.11l.77 7.67c.82-.5 1.57-1.14 2.21-1.85.03-.04.08-.09.12-.13 1.12-1.3 1.93-2.87 2.31-4.61 0-.06.01-.13.03-.19C42.3 27.39 42.37 26.71 42.37 26.04zM26.5 34.81l.77-7.66v-.01c0-.04 0-.09.01-.12l1.08-10.69c-3.93 1.47-6.72 5.26-6.72 9.7C21.64 29.73 23.59 32.99 26.5 34.81zM32 15.67c-.87 0-1.71.11-2.51.31l-1.07 10.62h7.19l-1.07-10.62C33.72 15.78 32.87 15.67 32 15.67z" fill="#ffffff" class="color000000 svgShape"></path>
  <path d="M63.3,54.99H61.2l-6.12-13.03c-0.05-0.13-0.16-0.24-0.31-0.33L46,36.99v-1.51l-5.67-1.6c-0.87,0.92-1.89,1.7-3.03,2.29
		c-1.35,0.72-2.87,1.17-4.48,1.28h-1.63c-1.61-0.11-3.13-0.56-4.48-1.28c-3.64-1.91-6.13-5.74-6.13-10.13c0-5.2,3.48-9.6,8.23-10.98
		c0.03-0.01,0.06-0.02,0.09-0.02c0.99-0.29,2.03-0.44,3.11-0.44c1.11,0,2.18,0.16,3.2,0.46h0.01c4.75,1.39,8.23,5.79,8.23,10.98
		c0,0.48-0.03,0.97-0.09,1.44L46,26.71v-7.95l-3.29-5.59h-9.96v-1.72c0.89-0.31,1.53-1.15,1.53-2.15c0-0.55-0.2-1.05-0.52-1.44
		l1.21-1.36c0.27-0.31,0.24-0.78-0.07-1.06c-0.13-0.12-0.31-0.19-0.49-0.19c-0.22,0-0.43,0.09-0.57,0.26l-1.39,1.56
		c-0.15-0.03-0.3-0.05-0.46-0.05c-1.26,0-2.28,1.01-2.28,2.28c0,0.99,0.64,1.83,1.53,2.14v1.72h-9.96l-1.73,3.02
		c0.64,0.63,1.04,1.51,1.04,2.49c0,1.63-1.11,3-2.6,3.4v14.9l-8.75,4.63C9.11,41.7,9,41.82,8.94,41.96L2.81,54.99H0.71
		C0.32,54.99,0,55.31,0,55.7s0.32,0.7,0.71,0.7H5.8c0.38,0,0.69-0.32,0.69-0.7c0-0.39-0.31-0.71-0.69-0.71H4.35l2.09-4.46
		l12.28-2.34h7.18l5.4,5.83v3.32h-1.84c-0.4,0-0.71,0.31-0.71,0.71c0,0.38,0.31,0.69,0.71,0.69h5.08c0.39,0,0.7-0.31,0.7-0.69
		c0-0.4-0.3-0.71-0.7-0.71h-1.84v-3.32l5.4-5.83h7.13l12.32,2.34l2.08,4.46h-1.44c-0.39,0-0.69,0.31-0.69,0.71
		c0,0.39,0.31,0.7,0.69,0.7h5.09c0.39,0,0.7-0.31,0.7-0.7C64,55.3,63.69,54.99,63.3,54.99z M7.18,48.97l2.7-5.73l6.83,3.92
		L7.18,48.97z M18.01,46.28l-6.99-4.01L18,38.59v0.31h0V46.28z M25.79,46.79H19.4v-7.9h10.95L25.79,46.79z M31.3,51.97l-3.5-3.78
		h3.5V51.97z M31.3,46.79h-3.9l3.9-6.75V46.79z M32.7,51.97v-3.78h3.5L32.7,51.97z M32.7,46.79v-6.75l3.9,6.75H32.7z M44.61,46.79
		h-6.39l-4.55-7.9h10.95V46.79z M46,38.59l6.99,3.69L46,46.28V38.59z M47.3,47.15l6.83-3.92l2.7,5.73L47.3,47.15z" fill="#ffffff" class="color000000 svgShape"></path>
  <path d="M17.07 21.15c1.35 0 2.46-1.1 2.46-2.46 0-.76-.35-1.44-.89-1.9-.05-.03-.1-.08-.15-.11 0 0-.01 0-.01-.01-.4-.28-.88-.44-1.41-.44-1.36 0-2.46 1.11-2.46 2.46C14.61 20.05 15.7 21.15 17.07 21.15zM41.09 32.98l5.35 1.51 2.89-1.51v-3.74l-2.89-1.53-3.3.93C42.76 30.25 42.05 31.71 41.09 32.98z" fill="#ffffff" class="color000000 svgShape"></path>
</svg>
