<svg xmlns="http://www.w3.org/2000/svg" viewBox="0 0 1024 1024" id="mahishasura">
  <path d="M227.936 150.086C221.832 140.191 218.54 128.998 226.985 118.824C230.343 114.778 234.177 111.628 237.06 107.112C244.948 94.7526 248.911 78.1519 250.197 63.5898C250.861 56.0742 248.079 49.8963 256.093 47.7682C258.433 47.8325 260.043 49.2755 261.45 51.006C263.233 71.4111 262.247 87.2357 274.483 106.437C285.196 123.247 299.306 126.452 283.777 150.086C304.235 157.646 313.297 179.261 301.637 198.078C318.392 211.007 322.323 225.704 322.329 245.302L322.32 263.74C333.814 263.749 353.502 267.905 357.187 253.871C359.085 246.64 354.239 242.333 351.694 236.235C343.371 216.29 347.821 193.223 362.18 177.104C370.941 167.268 372.052 181.471 372.372 187.147C373.479 206.737 377.846 219.355 387.309 235.735C396.495 251.635 390.916 272.996 378.409 285.393C367.27 296.433 357.987 296.902 343.324 296.89L324.507 296.878C328.29 313.536 338.365 321.712 337.756 342.455C337.424 353.775 332.668 366.876 324.19 374.688C318.358 380.062 315.354 373.785 311.968 369.292L289.853 339.464C285.587 333.65 281.493 327.668 276.909 322.098C274.672 323.282 272.499 324.611 270.273 325.823L270.281 442.079C270.293 446.05 271.497 457.644 269.093 460.762C267.378 462.986 263.575 463.084 261.588 461.165C258.894 458.563 260.172 446.457 260.178 442.864L260.181 328.849L256.093 328.849L251.763 328.849L251.76 445.299C251.761 449.087 253.113 457.993 250.503 461.043C248.848 462.978 245.202 463.023 243.436 461.223C240.636 458.369 241.734 444.039 241.733 440.031L241.742 325.823C239.799 324.287 238.165 322.919 235.792 322.098C231.042 325.262 227.867 331.553 224.481 336.043L202.865 364.941C200.422 368.209 196.391 376.734 191.14 375.361C186.723 374.205 181.19 365.581 179.096 361.793C170.9 346.964 173.425 329.153 180.072 314.265C182.707 308.362 185.719 303.699 187.583 297.323L171.131 297.329C167.333 297.329 163.485 297.446 159.701 297.079C138.037 294.977 120.517 276.188 120.642 254.277C120.717 241.282 127.35 232.217 131.719 220.629C136 209.276 138.057 197.39 139.501 185.397C142.028 164.396 149.336 176.057 155.364 186.954C163.589 201.824 168.721 217.47 160.902 233.797C156.374 243.252 147.642 248.488 158.373 259.223C163.702 264.554 170.203 263.816 177.13 263.77L189.576 263.74L189.561 247.677C189.55 229.145 193.061 208.203 211.106 198.078C209.916 195.546 208.563 193.048 207.525 190.451C200.611 173.139 211.724 156.436 227.936 150.086ZM256.093 87.9254C253.041 97.0154 250.071 106.619 244.518 114.558C241.231 119.258 234.76 124.491 232.787 129.494C230.335 135.709 234.289 143.244 240.563 145.25C245.168 146.722 251.281 146.018 256.093 145.997C265.674 146.061 280.504 147.004 280.234 132.989C280.079 124.964 270.864 119.828 266.687 113.376C262.647 107.136 257.788 95.73 256.287 88.4526C256.213 88.0969 256.264 88.2471 256.093 87.9254ZM244.412 156.252C225.198 158.467 207.551 171.89 220.116 192.189C229.274 186.378 244.25 186.878 248.636 179.021C250.858 175.039 250.976 169.018 257.377 170.409C260.586 171.106 261.144 174.713 262.1 177.304C266.875 185.78 273.685 185.263 281.842 187.578C285.783 188.696 289.512 190.573 293.27 192.189C300.176 179.999 295.824 167.968 283.816 161.166C272.663 154.849 257.083 155.959 244.412 156.252ZM256.093 186.19C249.136 193.523 246.315 194.569 236.299 196.718C219.798 200.258 204.829 213.341 200.907 230.063C199.421 236.396 199.753 243.206 199.758 249.677L199.773 270.78C199.779 291.886 199.488 298.766 190.21 316.902C181.14 334.635 182.746 346.915 191.796 363.716C197.003 354.467 204.348 346.203 210.681 337.693L221.768 322.859C223.734 320.262 225.628 317.382 227.936 315.089C215.773 302.977 207.286 296.846 207.244 277.993L207.241 264.807C207.32 220.849 239.309 244.689 248.776 221.086C250.73 216.213 249.828 209.084 257.079 209.667C261.468 211.304 261.301 215.218 262.538 219.116C266.461 231.475 274.779 232.296 285.324 234.19C295.432 236.004 303.55 244.307 304.776 254.489C305.906 263.865 305.813 286.083 302.516 294.006C298.926 302.63 290.127 307.79 284.618 315.089C286.725 317.856 288.645 320.742 290.696 323.548L302.276 339.146C308.308 347.348 314.5 355.434 320.426 363.716C330.511 349.406 329.036 331.846 321.633 316.828C312.541 298.386 312.146 289.803 312.171 268.712L312.193 249.094C312.198 243.079 312.674 236.72 311.333 230.831C307.757 215.118 294.958 202.271 279.666 197.558C269.892 194.546 262.831 195.727 256.093 186.19ZM362.885 193.946C347.176 223.994 368.73 234.479 367.827 251.792C366.457 278.067 339.668 273.503 322.32 273.84C322.258 278.158 322.494 282.496 322.32 286.805L331.377 286.805L345.162 286.818C365.828 286.811 381.896 275.314 381.675 253.374C381.579 243.859 378.536 241.894 374.237 234.142C369.458 225.524 366.179 214.813 364.646 205.144C364.256 202.685 364.152 195.641 362.885 193.946ZM148.25 195.886C146.631 204.19 145.595 212.306 142.757 220.337C137.991 233.826 128.358 245.414 131.29 260.549C133.904 274.043 145.174 284.305 158.601 286.825C163.123 287.673 177.978 286.788 183.402 286.805C185.498 287.031 187.481 287.14 189.576 286.805C189.664 282.485 189.6 278.16 189.576 273.84L176.721 273.871C159.61 273.902 143.116 267.629 143.279 247.635C143.39 234.109 160.246 230.228 152.776 205.822C151.895 202.945 150.636 197.823 148.25 195.886ZM256.093 228.915C243.207 249.494 227.239 238.458 219.721 250.094C215.942 255.941 216.721 280.695 217.949 286.013C219.98 294.814 237.57 311.426 244.271 315.561C247.877 317.785 251.899 318.636 256.093 318.75C259.459 318.71 262.692 318.328 265.782 316.904C271.959 314.059 290.244 296.554 293.464 289.086C295.879 283.486 297.238 254.378 290.561 247.871C281.11 238.66 269.523 248.941 256.093 228.915Z" transform="scale(2)" fill="#ffffff" class="color000000 svgShape"></path>
</svg>
