<svg xmlns="http://www.w3.org/2000/svg" enable-background="new 0 0 64 64" viewBox="0 0 64 64" id="Comet">
  <path d="M58.19,37.76c-4.35-4.2-8.1-7.17-11.73-10.03c-5.19-4.1-9.67-7.64-14.64-13.78c-0.14-0.18-0.39-0.23-0.59-0.13
		c-0.21,0.1-0.32,0.32-0.27,0.55C31.01,14.6,32,19.04,34,23.12C29.61,18.71,21.18,9.96,18.13,4.93c-0.13-0.22-0.4-0.3-0.63-0.19
		c-0.23,0.11-0.34,0.38-0.25,0.62c0.13,0.33,2.56,6.68,6.08,12.02C18.52,13.41,9.54,6.5,0.7,2.41C0.48,2.31,0.21,2.39,0.08,2.6
		c-0.14,0.2-0.09,0.48,0.1,0.64c0.16,0.13,14.25,11.88,22.7,20.97c-3.79-2.81-9.65-6.78-14.97-8.81c-0.22-0.08-0.48,0-0.6,0.21
		c-0.12,0.21-0.07,0.48,0.11,0.63c0.1,0.08,8.37,6.87,14.63,12.66c-2.2-1.06-5.2-2.29-7.96-2.71c-0.23-0.03-0.45,0.1-0.53,0.32
		c-0.08,0.22,0,0.46,0.19,0.59c0.09,0.05,7.53,4.78,13.45,10.08c-1.62-0.6-3.9-1.39-6.5-2.06c-0.24-0.06-0.48,0.06-0.57,0.28
		c-0.1,0.23-0.02,0.48,0.18,0.62c0.1,0.06,9.84,6.4,21.25,20.46c2.61,3.22,6.92,5.1,11.83,5.14c0.06,0.01,0.12,0.01,0.18,0.01
		c1.78,0,3.45-0.25,4.84-0.71c1.4-0.45,2.52-1.1,3.19-1.9C62.9,57.48,67.79,47.02,58.19,37.76z M60.85,58.39
		c-1.16,1.38-4.15,2.3-7.45,2.25c-2.18-0.02-7.63-0.53-11.08-4.78c-8.21-10.13-15.6-16.3-19.18-19.02c3.59,1.1,6.09,2.23,6.12,2.24
		c0.22,0.1,0.47,0.03,0.61-0.17c0.13-0.19,0.11-0.46-0.06-0.63c-4.28-4.21-10.08-8.35-13.24-10.5c4.14,1.26,8.14,3.66,8.19,3.68
		c0.21,0.13,0.49,0.08,0.64-0.12c0.15-0.19,0.14-0.47-0.04-0.65c-4.35-4.26-10.94-9.88-14.61-12.96
		c7.68,3.8,15.44,10.31,15.53,10.39c0.2,0.16,0.48,0.15,0.66-0.02c0.18-0.18,0.2-0.46,0.05-0.66C21.48,20.5,9.62,10.02,3.95,5.15
		c11.47,6.21,22.17,15.9,22.29,16.01c0.19,0.18,0.49,0.17,0.68-0.02c0.18-0.18,0.19-0.48,0.01-0.68c-2.84-3.1-5.33-7.8-6.92-11.2
		c5.68,7.22,15.54,16.8,16.04,17.28c0.18,0.18,0.47,0.19,0.66,0.02c0.2-0.17,0.23-0.46,0.08-0.66c-2.14-2.89-3.59-7.12-4.31-9.63
		c4.51,5.23,8.83,8.64,13.37,12.23c3.61,2.85,7.34,5.8,11.66,9.96c4.28,4.14,5.53,8.5,5.53,12.09
		C63.04,54.57,61.48,57.64,60.85,58.39z" fill="#ffffff" class="color000000 svgShape"></path>
  <path d="M58.1 42.57c-1.63-1.63-3.76-2.63-6.02-2.82-.17-.02-.35.07-.43.22-.03.03-.06.07-.1.11-.23.23-.51.34-.88.36-.34-.01-.66-.14-.88-.37-.12-.13-.3-.18-.45-.15-1.74.37-3.32 1.22-4.57 2.47-3.41 3.41-3.6 8.84-.45 12.65.14.16.38.22.57.13.4-.18.88-.09 1.21.23.3.3.41.71.28 1.1-.06.2.02.42.2.54 1.59 1.03 3.41 1.53 5.19 1.53 2.4 0 4.77-.91 6.52-2.65C61.91 52.29 61.82 46.3 58.1 42.57zM50.91 50.87c-.11.75-.49 1.39-1.02 1.77-.32.22-.67.34-1.02.34-.09 0-.19-.01-.29-.03C47.63 52.77 47 51.82 47 50.67c0-.16.01-.32.04-.49.11-.75.49-1.4 1.02-1.77.4-.29.86-.4 1.31-.31C50.44 48.3 51.12 49.51 50.91 50.87zM52.77 45.05c-.01-.45.16-.87.47-1.19.63-.62 1.73-.61 2.37.03.66.66.67 1.72.02 2.37-.31.31-.73.47-1.16.47s-.87-.17-1.2-.5C52.95 45.91 52.77 45.49 52.77 45.05zM57.45 52.64c-.17.5-.58.93-1.13 1.19-.35.17-.7.25-1.04.25-.61 0-1.15-.27-1.4-.77-.16-.31-.18-.68-.05-1.04.17-.49.58-.93 1.13-1.19.98-.47 2.06-.24 2.44.53C57.55 51.92 57.57 52.29 57.45 52.64zM50.28 35.37c.09.06.19.09.29.09.16 0 .31-.07.41-.21.16-.23.1-.54-.13-.7-.23-.16-.49-.35-.76-.55-.22-.16-.53-.12-.7.1-.16.22-.12.54.11.7C49.78 35.01 50.04 35.2 50.28 35.37zM47.87 33.56c.09.07.2.11.31.11.15 0 .29-.07.39-.19.17-.22.13-.53-.09-.7-2.54-1.99-5.54-4.52-5.57-4.54-.21-.18-.53-.15-.7.06-.18.21-.15.53.06.7C42.3 29.02 45.31 31.56 47.87 33.56z" fill="#ffffff" class="color000000 svgShape"></path>
</svg>
