<svg xmlns="http://www.w3.org/2000/svg" viewBox="0 0 96 96" id="Om">
  <path d="M47.927 20C32.528 20 20 32.528 20 47.926 20 63.406 32.528 76 47.927 76 63.406 76 76 63.406 76 47.926 76 32.528 63.406 20 47.927 20zm0 55C33.079 75 21 62.855 21 47.926 21 33.079 33.079 21 47.927 21 62.855 21 75 33.079 75 47.926 75 62.855 62.855 75 47.927 75z" fill="#ffffff" class="color000000 svgShape"></path>
  <path d="M47.945 27C36.396 27 27 36.396 27 47.945 27 59.555 36.396 69 47.945 69 59.555 69 69 59.555 69 47.945 69 36.396 59.555 27 47.945 27zm0 41C36.947 68 28 59.003 28 47.945 28 36.947 36.947 28 47.945 28 59.004 28 68 36.947 68 47.945 68 59.003 59.004 68 47.945 68z" fill="#ffffff" class="color000000 svgShape"></path>
  <path d="M53 40a7.048 7.048 0 0 0 4.95-2.05l-.707-.707A6.045 6.045 0 0 1 53 39a6.015 6.015 0 0 1-5.196-3l-.865.5A7.015 7.015 0 0 0 53 40z" fill="#ffffff" class="color000000 svgShape"></path>
  <path d="M53 37c1.103 0 2-.897 2-2s-.897-2-2-2-2 .897-2 2 .897 2 2 2zm0-3a1.001 1.001 0 1 1-1 1c0-.551.448-1 1-1zm4 8c-2.206 0-4 1.794-4 4v1c0 .79-.32 1.563-.879 2.122A3.022 3.022 0 0 1 50 50h-1.69A5.996 5.996 0 0 0 51 45c0-3.309-2.691-6-6-6a6.01 6.01 0 0 0-5.195 3l.866.5A5.01 5.01 0 0 1 45 40c2.757 0 5 2.243 5 5s-2.243 5-5 5v1c2.757 0 5 2.243 5 5s-2.243 5-5 5a9.065 9.065 0 0 1-6.364-2.636A9.065 9.065 0 0 1 36 52h-1c0 2.632 1.067 5.209 2.929 7.071A10.07 10.07 0 0 0 45 62c3.309 0 6-2.691 6-6a5.998 5.998 0 0 0-2.69-5H50c1.053 0 2.083-.427 2.828-1.171S54 48.053 54 47v-1c0-1.654 1.346-3 3-3s3 1.346 3 3v7c0 1.654-1.346 3-3 3s-3-1.346-3-3h-1c0 2.206 1.794 4 4 4s4-1.794 4-4v-7c0-2.206-1.794-4-4-4z" fill="#ffffff" class="color000000 svgShape"></path>
  <path d="M47.955 96C21.513 96 0 74.447 0 47.956 0 21.513 21.513 0 47.955 0 74.447 0 96 21.513 96 47.956 96 74.447 74.447 96 47.955 96zm0-95C22.063 1 1 22.064 1 47.956 1 73.896 22.063 95 47.955 95 73.896 95 95 73.896 95 47.956 95 22.064 73.896 1 47.955 1z" fill="#ffffff" class="color000000 svgShape"></path>
</svg>
