<svg xmlns="http://www.w3.org/2000/svg" enable-background="new 0 0 64 64" viewBox="0 0 64 64" id="Planets">
  <path fill="#484848" d="M31.14,55.08C19,55.08,9.12,45.21,9.12,33.07c0-12.14,9.87-22.01,22.01-22.01c12.14,0,22.01,9.88,22.01,22.01
			c0,7-3.39,13.65-9.07,17.79c-0.43,0.31-1.04,0.22-1.35-0.21c-0.32-0.43-0.22-1.04,0.21-1.36c5.18-3.77,8.27-9.84,8.27-16.22
			c0-11.07-9-20.07-20.07-20.07c-11.07,0-20.07,9-20.07,20.07c0,11.07,9,20.07,20.07,20.07c2.12,0,4.18-0.32,6.14-0.96
			c0.51-0.16,1.06,0.11,1.22,0.62c0.17,0.51-0.11,1.06-0.62,1.22C35.72,54.73,33.45,55.08,31.14,55.08z" class="color34495c svgShape"></path>
  <path fill="#484848" d="M42.6,6.31c-0.24-0.11-0.47-0.21-0.71-0.3c-0.5-0.2-1.06,0.04-1.26,0.54c-0.01,0.03-0.02,0.06-0.03,0.09
			c-0.01,0.05-0.02,0.1-0.03,0.15c-0.06,0.43,0.19,0.85,0.6,1.02c0.3,0.12,0.6,0.24,0.89,0.38c7.15,3.13,12.67,9.29,15,16.72
			l0.88-0.22l0.18-0.04c0.22-0.03,0.46-0.05,0.7-0.05c0.06,0,0.11,0,0.17,0.01C56.52,16.43,50.46,9.68,42.6,6.31z M59.36,34.94
			h-1.12c-0.96,14.04-12.91,25.3-27.1,25.3c-5.01,0-9.86-1.37-14.09-3.95c-0.25-0.15-0.5-0.31-0.74-0.47
			c-0.41-0.26-0.94-0.19-1.26,0.17c-0.03,0.03-0.06,0.07-0.09,0.11c-0.02,0.03-0.04,0.06-0.05,0.09c-0.01,0.01-0.02,0.02-0.02,0.04
			c-0.19,0.43-0.05,0.95,0.35,1.21c0.24,0.16,0.48,0.31,0.72,0.45c4.57,2.81,9.79,4.29,15.18,4.29c15.56,0,28.18-11.97,29.05-27.4
			C59.92,34.86,59.64,34.91,59.36,34.94z M11.43,51.74c-0.2-0.21-0.4-0.43-0.59-0.65c-4.45-4.98-6.88-11.34-6.88-18.02
			c0-1.69,0.15-3.36,0.46-4.98c0.06-0.32,0.13-0.64,0.2-0.96c0.11-0.46-0.14-0.91-0.55-1.1c-0.06-0.02-0.12-0.04-0.18-0.06
			c-0.52-0.12-1.04,0.2-1.16,0.72c-0.06,0.25-0.11,0.5-0.16,0.75c-0.36,1.83-0.55,3.71-0.55,5.63c0,7.18,2.63,14.04,7.44,19.38
			c0.18,0.21,0.37,0.42,0.56,0.62c0.19,0.2,0.45,0.3,0.7,0.3c0.24,0,0.48-0.08,0.67-0.26c0.01-0.01,0.02-0.02,0.03-0.03
			C11.78,52.71,11.79,52.11,11.43,51.74z M35.28,4.24c-0.25-0.04-0.51-0.07-0.76-0.1c-1.12-0.12-2.25-0.19-3.38-0.19
			c-10.13,0-19.58,5.34-24.86,13.97c-0.13,0.22-0.26,0.44-0.39,0.66c-0.27,0.47-0.11,1.06,0.36,1.33c0.05,0.03,0.11,0.05,0.16,0.07
			c0.03,0.01,0.05,0.02,0.07,0.03c0.08,0.02,0.16,0.03,0.25,0.03c0.33,0,0.66-0.18,0.84-0.49c0.17-0.29,0.34-0.57,0.51-0.85
			c4.96-7.93,13.7-12.81,23.06-12.81c0.96,0,1.93,0.05,2.9,0.15c0.32,0.03,0.65,0.07,0.97,0.12c0.46,0.07,0.89-0.2,1.04-0.63
			c0.02-0.07,0.04-0.14,0.05-0.2C36.18,4.8,35.81,4.31,35.28,4.24z" class="color34495c svgShape"></path>
  <path fill="#ffffff" d="M40.59 56c-.27 0-.54-.02-.82-.08-1.7-.32-3.05-1.68-3.38-3.37-.27-1.41.17-2.85 1.18-3.86 1-1 2.45-1.44 3.86-1.18 1.7.32 3.05 1.68 3.37 3.37l0 0c.27 1.41-.17 2.85-1.18 3.86C42.82 55.56 41.72 56 40.59 56zM40.6 49.38c-.62 0-1.21.24-1.66.69-.56.56-.79 1.33-.64 2.12.17.91.92 1.66 1.83 1.83.79.15 1.57-.08 2.12-.64.56-.56.79-1.33.64-2.12-.17-.91-.92-1.66-1.83-1.83C40.91 49.39 40.75 49.38 40.6 49.38zM13.06 59.02c-.27 0-.54-.02-.82-.08-1.7-.32-3.05-1.68-3.38-3.37-.27-1.41.17-2.85 1.18-3.86 1-1 2.45-1.45 3.86-1.18 1.7.32 3.05 1.68 3.38 3.38 0 0 0 0 0 0 .27 1.41-.17 2.85-1.18 3.86C15.29 58.58 14.2 59.02 13.06 59.02zM13.07 52.4c-.62 0-1.21.24-1.66.69-.56.56-.79 1.33-.64 2.12.17.91.92 1.66 1.83 1.83.79.15 1.57-.08 2.12-.64.56-.56.79-1.33.64-2.12l0 0c-.17-.91-.92-1.66-1.83-1.83C13.38 52.41 13.23 52.4 13.07 52.4zM5.18 28.17C2.32 28.17 0 25.84 0 22.99c0-2.86 2.32-5.18 5.18-5.18 2.86 0 5.18 2.32 5.18 5.18C10.36 25.84 8.04 28.17 5.18 28.17zM5.18 19.74c-1.79 0-3.24 1.45-3.24 3.24 0 1.79 1.45 3.24 3.24 3.24 1.79 0 3.24-1.45 3.24-3.24C8.43 21.2 6.97 19.74 5.18 19.74zM58.99 24.61c-.06-.01-.11-.01-.17-.01-.24 0-.48.02-.7.05l-.18.04-.88.22c-2.01.73-3.43 2.66-3.43 4.88 0 2.66 2.02 4.86 4.61 5.15h1.12c.28-.03.56-.08.83-.16 2.22-.59 3.81-2.62 3.81-4.99C64 26.99 61.77 24.69 58.99 24.61zM59.23 33.01h-.04c-.12.01-.25.02-.37.02-1.79 0-3.25-1.45-3.25-3.24 0-1.62 1.2-2.99 2.8-3.22.01.01.02.01.03 0h.04c.12-.02.25-.03.38-.03 1.79 0 3.24 1.46 3.24 3.25C62.06 31.44 60.85 32.8 59.23 33.01zM59.36 34.94c-.04.01-.07.01-.1.01-.03 0-.06 0-.09-.01H59.36z" class="colorf6b64e svgShape"></path>
  <path fill="#484848" d="M30.84,49.11c-4.86,0-9.4-2.18-12.44-5.99c-2.24-2.81-3.48-6.33-3.48-9.93c0-8.78,7.14-15.92,15.92-15.92
			c3.6,0,7.13,1.23,9.93,3.48c3.81,3.05,5.99,7.58,5.99,12.44C46.76,41.97,39.62,49.11,30.84,49.11z M30.84,19.21
			c-7.71,0-13.98,6.27-13.98,13.98c0,3.16,1.08,6.26,3.05,8.72c2.68,3.34,6.66,5.26,10.93,5.26c7.71,0,13.98-6.27,13.98-13.98
			c0-4.27-1.92-8.25-5.26-10.93C37.1,20.29,34,19.21,30.84,19.21z" class="color34495c svgShape"></path>
  <path fill="#484848" d="M33.38 29.09c-1.93 0-3.51-1.57-3.51-3.51 0-1.93 1.57-3.51 3.51-3.51 1.93 0 3.51 1.57 3.51 3.51C36.89 27.51 35.31 29.09 33.38 29.09zM33.38 24.01c-.86 0-1.57.7-1.57 1.57 0 .86.7 1.57 1.57 1.57.86 0 1.57-.7 1.57-1.57C34.95 24.72 34.24 24.01 33.38 24.01zM23.35 35.48c-.73 0-1.47-.23-2.1-.7-1.55-1.16-1.86-3.36-.7-4.91.56-.75 1.38-1.23 2.31-1.37.93-.13 1.85.11 2.6.67.75.56 1.23 1.38 1.37 2.31.13.93-.1 1.85-.67 2.6C25.47 34.99 24.42 35.48 23.35 35.48zM23.36 30.4c-.07 0-.15 0-.22.02-.41.06-.78.28-1.03.61-.52.69-.38 1.68.31 2.19.69.52 1.67.38 2.19-.31.25-.34.36-.75.3-1.16-.06-.41-.28-.78-.61-1.03C24.02 30.51 23.7 30.4 23.36 30.4zM30.84 43.46c-.75 0-1.48-.24-2.1-.7-.75-.56-1.23-1.38-1.37-2.31-.13-.93.1-1.85.67-2.6 1.16-1.55 3.36-1.86 4.91-.7.75.56 1.24 1.38 1.37 2.31.13.93-.1 1.85-.67 2.6l0 0c-.56.75-1.38 1.24-2.31 1.37C31.17 43.45 31 43.46 30.84 43.46zM30.84 38.39c-.48 0-.95.22-1.26.63-.25.34-.36.75-.3 1.16.06.41.28.78.61 1.03.34.25.75.36 1.16.3.41-.06.78-.28 1.03-.61 0 0 0 0 0 0 .25-.33.36-.75.3-1.16-.06-.41-.28-.78-.61-1.03C31.5 38.49 31.17 38.39 30.84 38.39z" class="color34495c svgShape"></path>
  <g fill="#000000" class="color000000 svgShape">
    <path fill="#ffffff" d="M38.33,10.38c-2.36,0-4.28-1.92-4.28-4.28c0-2.36,1.92-4.28,4.28-4.28c2.36,0,4.28,1.92,4.28,4.28
			C42.61,8.46,40.69,10.38,38.33,10.38z M38.33,3.76c-1.29,0-2.34,1.05-2.34,2.34c0,1.29,1.05,2.34,2.34,2.34
			c1.29,0,2.34-1.05,2.34-2.34C40.67,4.81,39.62,3.76,38.33,3.76z" class="colorf6b64e svgShape"></path>
  </g>
</svg>
