<svg xmlns="http://www.w3.org/2000/svg" viewBox="0 0 64 64" id="astronaut">
  <path fill="#ffffff" d="M37.64,23.52l.23,0,.55.1v0a.56.56,0,0,1-.66.43.57.57,0,0,1-.44-.66v0l.12,0Zm6.76-6.28-1.35-3A.49.49,0,0,0,42.4,14l-.2.08,1.55,3.49Zm-8.14-6.69,3-1.34a.51.51,0,0,0,.26-.28.48.48,0,0,0,0-.39l-.19-.45a.51.51,0,0,0-.67-.26l-3.16,1.4.2.27A7.47,7.47,0,0,1,36.26,10.55Zm4,4.84a1.62,1.62,0,0,1,1.1,1.88l-.7,3.32c0,.17.09.59.21,1.13l2.55-1.13a.55.55,0,0,0,.26-.28.48.48,0,0,0,0-.39l-2.42-5.48-1.66.74Zm-3.74-3.88a5.35,5.35,0,0,1,0,2.67l1.67.53,1.59-.7.94-.42-2.45-2.84Zm11,13,.19.55h.11a1.32,1.32,0,0,1,1.23.84l.11.3a.31.31,0,0,0,.4.18l.44-.17a.35.35,0,0,0,.18-.16.33.33,0,0,0,0-.24l-1-2.76a.31.31,0,0,0-.4-.18l-1.57.6,0,.12ZM34.5,38l.17.45a.31.31,0,0,0,.4.17l2.75-1.08a.3.3,0,0,0,.17-.16.29.29,0,0,0,0-.24l-.58-1.47-.08,0-.45.18h0l-1.08.43a1.28,1.28,0,0,1-.1.47,1.32,1.32,0,0,1-.73.7l-.29.11A.3.3,0,0,0,34.5,38ZM48.38,29.2c-.16.21.14,1.3,1.47,2.44a5,5,0,0,0,.46.37,3.72,3.72,0,0,0,1.89.82.41.41,0,0,0,.28-.08c.19-.26-.21-1.37-1.47-2.46a4.24,4.24,0,0,0-2.35-1.17A.41.41,0,0,0,48.38,29.2ZM30.47,10.29l.08-.07A1.61,1.61,0,0,1,31.78,10a1.65,1.65,0,0,1,1,.7A1.63,1.63,0,0,1,33,11.92a1.6,1.6,0,0,1-.62,1,6.8,6.8,0,0,1-2.72,4.62,4.45,4.45,0,0,0,.88.13h.32a4,4,0,0,0,.91-.11,5,5,0,0,0,3.36-2.6l.06-.11h0a4.17,4.17,0,0,0,.3-.86,1.6,1.6,0,0,0,0-.21c0-.16.05-.3.07-.45h0a4.73,4.73,0,0,0,0-1.36,4.41,4.41,0,0,0-.26-1,4.79,4.79,0,0,0-1.56-2,4.87,4.87,0,0,0-7.52,1.87A6.51,6.51,0,0,1,30.47,10.29ZM48.2,9.05a.69.69,0,0,0,0-1.37.69.69,0,1,0,0,1.37Zm-14,17.72a5,5,0,0,1-.25-.52l-.54,1.5-1,2.65a.64.64,0,0,0,0,.49l2.06,4.19a.62.62,0,0,0,.8.3l2-.82a.63.63,0,0,0,.35-.33c.21-.35-.41-1.38-.5-1.71-.43-.77.46-2.34.66-3.08a5.12,5.12,0,0,1-2.93-1.61h0A5.11,5.11,0,0,1,34.17,26.77ZM43,25.91c-.92,1-2.32-1.64-2.71-2.81,0-.12-.07-.23-.09-.31a1.6,1.6,0,0,1-.49.57l-.19.13-.09.42a1.53,1.53,0,0,1-.67,1,1.5,1.5,0,0,1-.84.25,1.84,1.84,0,0,1-.33,0,1.56,1.56,0,0,1-1.2-1.84l.09-.44a.1.1,0,0,1,0,0c-.54-.68-.08-2,.13-3a4.43,4.43,0,0,1-1.16-.56.52.52,0,0,1-.12-.6.51.51,0,0,1,.68-.23l.11.08a4,4,0,0,0,1,.42l.16,0a.76.76,0,0,0,.49,0,.53.53,0,0,1,.69.16.5.5,0,0,1,0,.46.53.53,0,0,1-.19.23,1.43,1.43,0,0,1-.72.21l-.37,1.77a.61.61,0,0,0,.17.57h0a.42.42,0,0,0,.15.11l.13,0h0l1,.18h.11l.17,0h0a.59.59,0,0,0,.4-.46l.08-.38.29-1.35.71-3.4a.62.62,0,0,0-.42-.72l-1.75-.56-1.44-.46-.31-.09-.32-.11a4.25,4.25,0,0,1-.46.8,6.24,6.24,0,0,1-3.67,2.56l.25.67,2.08,5.48h0a0,0,0,0,1,0,0c.07.17.43,1.15.44,1.15a3.63,3.63,0,0,0,.57,1,4.23,4.23,0,0,0,1.5,1.22h0a4.4,4.4,0,0,0,1.54.41.43.43,0,0,1,.16,0h.27a3.61,3.61,0,0,0,1.11-.2l.81-.27h0l5.6-1.83a.56.56,0,0,0,.37-.32c.09-.1.06-.35,0-.63h0l-.31-.92,0,0s0,0,0-.06a2.48,2.48,0,0,1-.11-.33h0a.53.53,0,0,0-.18-.26h0l0,0a.58.58,0,0,0-.51-.1L42,24.41C42.26,25,43.3,25.2,43,25.91Zm10.52-10.1a3.28,3.28,0,0,1,1.08-1.08,3.31,3.31,0,0,1-1.07-1.07,3.45,3.45,0,0,1-1.08,1.07A3.35,3.35,0,0,1,53.48,15.81ZM44.71,49.68a2.4,2.4,0,1,0,1.68,4.12l0,0A2.39,2.39,0,0,0,47,52.66a2.2,2.2,0,0,0,.08-.58A2.4,2.4,0,0,0,44.71,49.68ZM11.4,34.06a.5.5,0,0,1-.5-.5,2.71,2.71,0,0,0-2.62-2.69.49.49,0,0,1-.49-.5.5.5,0,0,1,.49-.5,2.68,2.68,0,0,0,2.63-2.69.5.5,0,0,1,.5-.5.5.5,0,0,1,.5.5,2.68,2.68,0,0,0,2.62,2.69.5.5,0,0,1,0,1,2.72,2.72,0,0,0-2.63,2.69A.5.5,0,0,1,11.4,34.06Zm0-2.34a3.66,3.66,0,0,1,1.34-1.34,3.64,3.64,0,0,1-1.34-1.33,3.69,3.69,0,0,1-1.33,1.33A3.71,3.71,0,0,1,11.4,31.72ZM9.07,22a.5.5,0,0,1,.49-.5,1.89,1.89,0,0,0,1.85-1.9.5.5,0,0,1,.5-.5.5.5,0,0,1,.5.5,1.87,1.87,0,0,0,1.84,1.89.5.5,0,0,1,0,1,1.92,1.92,0,0,0-1.85,1.9.5.5,0,0,1-.5.5.51.51,0,0,1-.5-.5,1.89,1.89,0,0,0-1.84-1.89A.51.51,0,0,1,9.07,22Zm2.07,0a2.93,2.93,0,0,1,.76.77,3.13,3.13,0,0,1,.77-.77,2.75,2.75,0,0,1-.76-.76A2.93,2.93,0,0,1,11.14,22ZM25.3,37.35A3.6,3.6,0,1,0,28.9,41,3.61,3.61,0,0,0,25.3,37.35Zm26.28-.07a22.36,22.36,0,0,1,3.29,6.61,11.16,11.16,0,0,1-4.57,2.6,4,4,0,0,0-2.83,3.6,3.4,3.4,0,0,0-6.15,2,3.39,3.39,0,0,0,3.21,3.39l-.24.14a5.52,5.52,0,0,1-5.93-.31,4.15,4.15,0,0,0-2.4-.79,3.64,3.64,0,0,0-1.65.39,11.51,11.51,0,0,1-10,.15,11.56,11.56,0,0,1-6.62-7.56,4,4,0,0,0-3.06-2.92,12.36,12.36,0,0,1-3.32-1.15,22.55,22.55,0,0,1,5.24-8.67l.05-.06.42-.41c.18-.18.35-.36.54-.52l.43-.38c.19-.17.38-.34.57-.49l.43-.34.6-.46.5-.34.55-.37a23.49,23.49,0,0,1,4.4-2.2L22.78,15.55,12.69,17.23l-1.22-7.3,10.16-1.7a.49.49,0,0,1,1,.07l4.13,24.94A.49.49,0,0,0,27,32.7l-.66-4a22.84,22.84,0,0,1,5.94-1l-.83,2.31a1.67,1.67,0,0,0,.06,1.28l2.06,4.18a1.63,1.63,0,0,0,1.12.87.33.33,0,0,1-.13.13l-.29.11a1.32,1.32,0,0,0-.73.7,1.28,1.28,0,0,0,0,1l.17.44A1.3,1.3,0,0,0,35,39.6a1.36,1.36,0,0,0,.48-.09l2.75-1.08a1.31,1.31,0,0,0,.74-1.7l-.65-1.64a1.13,1.13,0,0,0,.32-.47c.4-.74-.24-1.8-.49-2.49a.58.58,0,0,1,0-.43l.79-2.2a5,5,0,0,0,1.43-.24l.47-.15h0a22.24,22.24,0,0,1,3.44,1.58,4.39,4.39,0,0,1-1.48,0,.5.5,0,0,0-.6.37.49.49,0,0,0,.37.6,3.44,3.44,0,0,0,.82.08,5.9,5.9,0,0,0,2.31-.49h0a6.64,6.64,0,0,0,1.83-1.16.67.67,0,0,0,.06.12,2.41,2.41,0,0,0,.15.33,1.71,1.71,0,0,0,.13.23,4,4,0,0,0,.22.34l.16.22c.1.13.2.24.31.36l.15.18c.17.17.34.34.52.5a6.92,6.92,0,0,0,.69.52l.21.14.51.29.25.12.47.19.24.07.12,0a6.81,6.81,0,0,0-.93,2.09h0a5.42,5.42,0,0,0,.07,3,.51.51,0,0,0,.47.31.57.57,0,0,0,.18,0,.51.51,0,0,0,.28-.65A4.17,4.17,0,0,1,51.58,37.28ZM29.9,41a4.6,4.6,0,1,0-4.6,4.6A4.61,4.61,0,0,0,29.9,41Zm14.71-.14a2.53,2.53,0,0,0-.84-1.69,2.1,2.1,0,0,0-1.8-.59,2.37,2.37,0,0,0-1.69.84A.5.5,0,1,0,41,40a1.46,1.46,0,0,1,1-.51,1.43,1.43,0,0,1,1.07.36,1.45,1.45,0,0,1,.5,1A1.49,1.49,0,0,1,43.26,42a.49.49,0,0,0,.05.7.45.45,0,0,0,.32.13A.49.49,0,0,0,44,42.6,2.43,2.43,0,0,0,44.61,40.81ZM56.25,21a.69.69,0,1,0,.68.69A.69.69,0,0,0,56.25,21ZM16.07,32.45a2.2,2.2,0,0,0,.19,1.14l.19-.16c.45-.44.92-.87,1.4-1.26l0,0c.49-.4,1-.77,1.5-1.12l.18-.13a2.22,2.22,0,0,0-2.69.09A2.19,2.19,0,0,0,16.07,32.45Zm9.77-9.22,4.72,2.57a.6.6,0,0,0,.61,0l2.12-1.2L31.1,18.8a20.28,20.28,0,0,0-1.19,2.85c-.28,1.09.46,1.5-.48,1.74a.48.48,0,0,1-.46-.31,2.84,2.84,0,0,1-.09-1.22l-1.81-.79a.66.66,0,0,0-.58,0l-.06.05h0a.63.63,0,0,0-.15.17l0,.07q-.07.14-.21.33l-.3.49,0,0a1.79,1.79,0,0,0-.12.24l0,0s0,.09,0,.12a.39.39,0,0,0,0,.22A.59.59,0,0,0,25.84,23.23Zm-.7-2,0,0,.07-.11c0-.08.09-.15.13-.22l0,0-.16-.06h-.12l.08.48Zm3.47-4.1a6.92,6.92,0,0,0,2.79-3.89l-.3,0a1.64,1.64,0,0,1-1.26-1.94.32.32,0,0,1,0-.09,6.74,6.74,0,0,0-3.93.87c0,.16,0,.32-.05.48A4.88,4.88,0,0,0,28.61,17.11ZM18.14,23.79a1.69,1.69,0,1,1,1.69,1.69A1.69,1.69,0,0,1,18.14,23.79Zm1,0a.69.69,0,1,0,1.37,0,.69.69,0,0,0-1.37,0ZM32.06,11.47a.58.58,0,0,0-.34-.44.39.39,0,0,0-.15-.06l-.13,0a.66.66,0,0,0-.35.11.6.6,0,0,0-.27.4.19.19,0,0,0,0,.08.63.63,0,0,0,.5.67h0a.61.61,0,0,0,.74-.49A.53.53,0,0,0,32.06,11.47Z" class="color231f20 svgShape"></path>
</svg>
