<svg xmlns="http://www.w3.org/2000/svg" enable-background="new 0 0 612.5 512" viewBox="0 0 612.5 512" id="Earth">
  <g fill="#000000" class="color000000 svgShape">
    <path fill="#bebebe" d="M61.2,243.3c0,0-6,167.5,144.3,242.2s274-30,294.6-49.8s78.1-110,72.2-180.3S549.1,101.5,445.9,35.4
		s-265.4-37-329,64.4S61.2,243.3,61.2,243.3z" class="colora4cfd8 svgShape"></path>
    <g fill="#000000" class="color000000 svgShape">
      <path fill="#9e9e9e" d="M364.4 478.7c0 .8.2 2 1.3 1.9 1.3 0 1.6-1.3 1.3-2.2-.1-1-.2-1.8-1.6-2C364.4 476.6 364.3 477.7 364.4 478.7zM487.2 211.4c-.2-.1-.6-.1-.8.1.1.4 0 1.1.2 1.1l0 0c0 .2.1.4.4.8l.1-.5c.2 0 .4-.2.5-.7C487.6 211.9 487.5 211.8 487.2 211.4 487.5 211.6 487.5 211.6 487.2 211.4L487.2 211.4C487.5 211.3 487.5 211.3 487.2 211.4zM443.7 443.7c0 0-.1.2-.1.4-.2.1-.6.5-.6.7-.1.4 0 .8.5 1.4l.1-.2c0 0 0 0 .2.1.2-.6 1-1 .7-1.8l0 0 0 0-.1-.2.1-.2C444 444 443.9 443.8 443.7 443.7zM421.9 437.6c-.1.2-.1.4 0 .7.2.1.4.4.5.4.2.1.2.1.5-.1l.4.4c.1-.2-.1-.5-.1-.5.1-.2.1-.2.1-.4-.1-.5-.5-.6-.8-1C422.2 437.3 421.9 437.4 421.9 437.6c.1-.2-.1-.2-.2-.1L421.9 437.6zM411.4 403.6c-.1-.2-.1-.2-.2-.5-.2-.1-.2.1-.4.4-.1.2.1.2.2.5C411.1 404 411.4 403.9 411.4 403.6zM360.4 371.1c-.7-.7-1.4-.8-2 0-.7.7-.6 1.8 0 2.8.7.7 1.4.6 2 0C361.2 373.1 361 372 360.4 371.1zM441.6 443.1c-.5.1-.7.2-1.1.6-.1.2.1.2.1.5.2-.1.7-.2 1-.4C441.8 443.6 441.6 443.4 441.6 443.1z" class="color7cbac1 svgShape"></path>
      <path fill="#9e9e9e" d="M443.5 442.9c.1 1.1 1 1 1.8.7.7-.2.7-.8.5-1.4-.2-.5-.8-1-1.6-.7C444 441.9 443.4 442.4 443.5 442.9zM355.2 333.7l.1-.2c-.4-.2-.8-.5-1.1-.6-.1.1-.4.2-.5.4-.1.1-.1.1-.4.2l.2.1c.1.1.1.1.2.4C354.3 333.9 354.5 333.9 355.2 333.7L355.2 333.7 355.2 333.7C355.4 333.9 355.2 333.7 355.2 333.7zM417.8 439.4l1.7-.6C418.9 438.8 418.3 439.1 417.8 439.4zM417.8 426.1l-.6-.2C417.3 426 417.3 426.2 417.8 426.1c-.2.1-.2.1-.5.2-.4.5.2 1.2.8 1.3l.2.1c.2.5.8 1 1.3.8.4.1.8.2 1.1-.1l.1.2c.5-.2 1.3-.7.8-1.3-.4-.4-.5-.4-.8 0l-3-1.2C417.9 426.2 417.8 426.1 417.8 426.1zM369.7 404.8c-.1-.5-.1-1-.2-1.4-.2.1-.5.2-.6.5-.1.4-.1 1.1 0 1.3C369 405.7 369.5 405.4 369.7 404.8zM492.6 240.2c-.7-.2-1.8-.2-2.6-.4-1-.2-2-.7-2.5.2-.8 1.2.4 2 1.4 2.8C492 244.8 492.3 242.4 492.6 240.2zM356.8 340.9l-1.4-.6c0 .5.2 1.1.1 1.4-.6-.1-.8-.2-1.2-.2.5.7 1.3 1 1.8.8-.2-.1-.6-.1-.8-.2C355.8 341.4 356.2 341.3 356.8 340.9zM376.1 396.3c.1-.2-.4-.4-.5-.4C375.7 396.5 375.9 396.7 376.1 396.3zM414.2 301c-.2-1.9-1.7-2.4-3.1-2.4-2.8-.2-3.2 1.6-3.5 3.7-.2 1.9.1 3.6 2 4.3 0 0 .2.1.2-.1 0 0-.1.2.1.2l1.1-1.2c1-1 2.2-2.5 2.8-3.5l.4-.5-.1-.1C414.2 301.2 414.2 301 414.2 301zM375 395.5c-.1.2.4.4.5.4C375.5 395.3 375.1 395.1 375 395.5zM353.8 371.6c-.8.2-1.1 1-.8 1.8 1 2.6 2.8 1.6 4.2.8.4-.2.5-.4.7-.5C357.9 370.5 356 371 353.8 371.6zM357.4 426.6c-.4-.4-.6-.2-.8.4.1.5.2.7.2 1.2.2-.1.6-.5.7-.8C357.6 427.1 357.6 426.6 357.4 426.6zM423.6 404.1c2 1.3 3.1-.2 4.1-1.7.8-1 .6-2.2-1.1-3.4-1.3-.2-2.4.5-3 1.7C422.8 402 422.4 403.5 423.6 404.1zM405 382.3c-.1-1.6-.7-3.1-2.3-3-1.1 0-1.4 1.1-1.4 2.2 0 1.3.7 2.5 1.9 2.6C404.5 384.4 404.8 383.4 405 382.3zM418.9 396.9c.6.2 1.4.2 1.9-.5.5-.7.2-1.4-.6-1.6-.7 0-1.2.5-1.7.6C418.1 396.2 418.2 396.5 418.9 396.9zM314.2 464.9c-.8-.2-1.2.2-1.2 1.1 0 .8.8 1.4 1.7 1.7.8.2 1.2-.2 1.2-1.1C315.9 465.7 315 465.1 314.2 464.9zM470.7 245.2c-.2.1-.2.1-.4.2l-.1.2c-.2-.1-.6-.1-.8-.2l.8 5.7c1.4-1.8 3-3.6 1-5.1l0 0c0 0 .1-.2 0-.5-.1-.2-.1-.2-.2-.4l.1-.2C470.8 245.1 470.7 245.2 470.7 245.2zM362.9 372.3c-.4.2-.2.4.1.6 0 0 .1-.2.2-.4C363 372.4 362.9 372.3 362.9 372.3zM443.2 396.5c1.2-.8 1.4-1.7 1-3.1-.4-1-.2-1.6-1.3-1.7-1.3-.1-2 .4-2.2 1.7-.4 1.4.1 2.9.7 4.3C442 397.2 442.5 396.8 443.2 396.5zM385.9 382.5c-.5-.7-1.1-.6-1.8-.4-.8.2-1.7.6-1.4 1.7.1.6 1.1.6 1.8.4C385.3 383.8 386 383.3 385.9 382.5zM402.6 415.5c.1 1.1.2 1.8 1.1 2.2 1.9.4 3.2-.4 3.7-1.9.5-1.4-.1-2.3-1.4-2.4C404.3 413 403.1 413.9 402.6 415.5zM373.3 410.9c.4-.5.7-.8 1-1.4 0-.8.1-1.7-1-2-.7 0-1.1.6-.8 1.3C372.3 409.6 372.5 410.6 373.3 410.9zM96.4 268.3c-2 .5-2 2-1.4 3.6.2.8.7 1.6 1.3 1.8l-.8 1.4c2 1.6 3.4-.5 4.1-1.6 2-2.6 1.6-6.5 3-9.5l-2.9 4.5C98.9 267.5 97.6 268.5 96.4 268.3zM412.6 410.9c.6.2 1-.4 1.1-.7 0-.8-.1-1.6-1.1-1.7-.2.1-.6.5-.7.8C411.7 410 412 410.7 412.6 410.9zM433.5 437c-.5.2-.8.4-.4.4C433.1 437.4 433.4 437.3 433.5 437zM433.9 436.8c0 0-.2.1-.4.4C434.1 437 434.2 436.9 433.9 436.8zM371.5 314.1c-1.2-.7-2-3.7-3.8-1.8-1 1.2-1.1 3.7.1 5.4 1.3 1.7 3.2.7 4.8.1C373.5 316.3 372.9 315 371.5 314.1zM402.7 244.5c1 2.2 4.2 4.3 6.1 3.8.8-.1 1.6-.7 1-1.7-.7-1.6-1.9-2.9-3.5-3.6.4-.4.5-.6.7-1 .7.2 1.2 1 1.6-.1.2-.1.2.1.5 0l-5.5-2.3c-.5-.2-.8-.6-1.3-.6-.6-.5-1.1-.5-1.3-.5h-.5c.1.2.1.2.1.4-.4.4-.4.8-.5 1.3-.1 1.6.2 3 1.6 3.8C402.1 244.2 402.5 244.4 402.7 244.5zM407.4 242c-.2.1-.2.1-.4.1l0 0 0 0C407.2 242 407.4 242 407.4 242zM483 214.3c-.1.2-.7.6-.5.7.1.8 1.1 1.3 1.9 1.3.6.1 1.2-.5.8-1.2C485 214.4 484 214.3 483 214.3zM470.1 241.1c-.8.7-1.2 1.3-.8 1.9.1.2.8.2 1.2 0 .8-.2 1.3-.7 1.1-1.6C471.2 241 470.7 240.9 470.1 241.1z" class="color7cbac1 svgShape"></path>
      <polygon fill="#9e9e9e" points="295.2 485.1 295.6 484.9 295.2 484.6" class="color7cbac1 svgShape"></polygon>
      <path fill="#9e9e9e" d="M475.6 436.7c1.7-.8 3.4-2 2.2-3.9-1.4-2.3-2.5-4.7-3.6-7.2-.4-.8-1.2-1.3-2.9-1.3-.8.6-2.3.8-3.1 2-.6 1.2-.2 2.3.6 3.4.8 1.3 1.7 2.3 2.5 3.4-.2-.2-.6-.5-1.1-.5-2.8 0-2.5 2.9-3.4 4.5-.5 1.1 0 2.2 1.2 2.3 2.8.2 3.4-2 4.2-3.7 0-.5 0-.8-.2-1.3.2.2.2.5.4.6C473.3 436.7 473.8 438 475.6 436.7zM279.5 482.4c.4-1.1.4-1.9-.5-2.8-.6-.6-1.4-.2-1.7.5-.4 1.1-.6 2.3.5 3.1C278.8 483.5 279.4 483 279.5 482.4zM470.5 208.9c.2-1-.1-1.4-.7-1.6-1.1 0-1.3.7-1.2 1.6.1.4.4 1 .6 1.2C469.9 210.4 470.4 209.7 470.5 208.9zM479 212.2c-.1-.8-.8-1.1-1.7-1-.6.4-1.1.8-1 1.7.1.8.8 1.1 1.7 1C478.9 213.7 479.2 213 479 212.2zM460.3 139.5c.1-.2.1-.2.1-.6 0 0-.2-.1-.5 0-.1.1-.1.2-.1.6C459.8 139.5 460.2 139.5 460.3 139.5zM453.2 139.3c.1.1.2.4.4.5 0 0 .1-.1.4-.2-.1-.1-.1-.5-.4-.5C453.5 139.1 453.4 139.2 453.2 139.3zM249.3 215.3c-.6-1.3-1.9-1.6-3.1-1-.8.6-1.3 1.1-1.4 1.7-.6-.8-.8-1.2-1.1-1.3-.5-.4-1.2-1-1.4-.8-1 .4-.8 1.4-.4 2.2.7 1.1 1.6 2 2.4 3 .1.1 1-.1 1.1-.2l.1-.1c0 .5.5.7.7 1.1.4-.2 1-.4 1.3-.6C249.5 218.4 250.3 217.1 249.3 215.3zM456.4 126.8c.1-.2 0-.5-.5-.7-.4.2-1 .1-1.2.5l-.1.2-.1.1.2.1c.1.1.4.2.7.4.2.1.5 0 .6-.1l0 0h.5C456.5 127.1 456.5 127.1 456.4 126.8zM466.9 104.5c-.8 1.1-1 2 .2 3.1.2.1.4.2.7.4-.5.8-.6 1.8.1 2.6 1.2 1 2 .1 3.1-.5.7-.7 2.3-1.4 1.4-2.9-1-1.1-1.9-1.1-2.9-.6.1-.6 0-1.6-.8-2.2C468.2 103.9 467.5 103.9 466.9 104.5zM500.3 346.8c-1.7 1-3.1 1.8-3.1 3.8-.1 3.4 2.5 3.9 5 4.3 0-.2 0-.2 0-.6.1.5.5 1 .6 1.4-.2-.4-.6-.6-.7-.8.1.7-.6 1.9 1.1 1.6.1.1.2.4.2.4l-.7-4.9c.7-.1 1.6-.5 2.3-.6l1-.2-.1-.1.1-.1c1-1.4.2-2.6-.7-3.5-1.1-1-2-1.1-3-.5l-.1-.1v-.2l-.1.1C501.5 346.3 500.9 346.6 500.3 346.8zM432.2 359.7c-.2-.6-.8-1.2-2-1.9.2-.1.4-.4.5-.7.1-.2.1-.2.1-.4.7-.1 1.3-.6 1.4-1.4s-.5-1.6-1.3-1.8c-.2-.6-.6-.8-1.3-1.3-1.3-.5-3.2-1.7-4.8-.2-.2.1-.1 1.1.2 1.9l-.2-.1-1.1-1.9c-.4-.4-.4-.8-.6-1.3 1.2-.7 2.4-1.6 3.8-1.9l-11.5 1.9c.5 2.2 2.4 1.8 3.7 1.6.2-.1.6-.2 1-.2 0 0 0 0-.1.2.4.8-.1 3.4 1.4 2.6 1.4-.8 2.5-.6 3.7-.2l-.1-.2c0 0 0 0 .2.1l.1.2c0 0 0 0-.2-.1l2.2 3.9 0 0 1.7 3.9c.2.1.4.1.6.2l.6 1.3c.4-.4.7-.6 1.1-1l.2.1c1.2-.2 1.8-1.1 1.6-2.3C432.4 360.2 432.3 360 432.2 359.7zM453.2 142.9l1.4.4C454.2 143.1 453.8 142.9 453.2 142.9zM457.7 140.4c1-.8.7-2-.2-2.9-.8-.7-2-.7-2.6-1.8-.2-.6-1-.8-1.4-.1-.4.2-.4.8-.1 1.2.5 1 1.2 2 1.9 2.9C455.8 140.1 456.6 141.7 457.7 140.4zM461 142c-.1.1-.7.5-.7.7-.2.4.1.6.7.4.2-.4.5-.8.7-1C461.3 142.2 461.1 141.9 461 142z" class="color7cbac1 svgShape"></path>
      <path fill="#9e9e9e" d="M460.7 143.5c.2 0 .5-.1.7-.4-.1-.1-.2-.4-.2-.4-.2 0-.5.1-.6.2C460.3 143.1 460.4 143.2 460.7 143.5zM448.5 136.4c.1.1.1.1.2.4l-1.1-2.2v.2l-.1-.1C447.7 135.5 446.9 136.4 448.5 136.4zM399.8 341.3c-.1-.8-.4-1.6-.7-2.5l0 0h.2l0 0c1 .2 2.3.8 2.4-.2.2-1.7-1.2-1.6-2.5-1.2-.1.1-.1.5 0 .6 0 0-.1.1-.2 0 0-.2 0-.2 0-.6-.2 0-.7-.1-.8.1.5-.6.7-1.3 0-1.9-1.7-1.7-3.6-.2-4.8 1-1.1 1-1 2.5.2 3.4.8.7 1.7.2 2.4-.2-.1.5-.1.7 0 1.3 0 .2.2.5.4.6-.1.1-.1.1-.2.4l1.1.4c-.7.5-.6 1.1 0 1.9.5.7 1.2 1.2 2.5 1 0-.6-.1-1.4-.5-2.3l1.3.4C400.1 342.4 400.1 341.8 399.8 341.3zM296.8 472.6c1.1-.8 1.1-1.9 1-3.1L296.8 472.6z" class="color7cbac1 svgShape"></path>
      <path fill="#9e9e9e" d="M296.6 472.6c-.5-.6-1.1-1.2-1.4-1.9-.2 0-.5-.2-.6-.2.2 0 .5.2.6.6C295.5 471.5 296.1 472.1 296.6 472.6c0 1.3 0 2.5 1.3 2.5 1.4 0 2.5-1.9 2-2.8C299.1 470.8 297.9 473.2 296.6 472.6zM297.8 469.3l1-3.1C297.8 467.1 297.8 468.1 297.8 469.3zM477.2 385.7c.5.4.8.6 1.4 1.1.2.2 1.1-.2 1.2-.5 1.1-1.1.6-2.3.1-3.6-.5-.8-.8-1.9-1.9-2.3.4-.2.8-.6.8-.8-1.3-3.9 1.8-5.6 3.7-8.3.2-.5 0-1.3-.2-1.4-.8-.6-6.8 2.9-7.1 4.7.2 1.4.7 3.1 1.3 5 0 .2.2.4.5.4-.2 0-.5 0-.6 0-.2 0-.4.2-.6.5-.5-.2-1.1-.2-1.4-.2-2.2 0-1.7 1.9-1.7 3.4.5 1.2.2 2.5 1.9 2.8.6 0 1.4-.5 2-1.1 0 0 .2 0 .2.2h-.2C476.7 385.8 476.9 385.8 477.2 385.7zM139.8 257.8c-.5-.7-.8-.8-1.2-.7 0-.1 0-.2.1-.2l-5 1.8c-.7-.1-1.3-.4-1.8.5v.1l0 0c-.2-.7-1-.7-1.6-.5-.4.2-1.3.1-1.2 1 .2.7 1.1 1.1 1.9 1 .6-.1 1-.4 1.1-.8.2.6.8 1.1 1.2 1.6 1.2 1.6 2.6 1.8 4.4 1.4.5.8.7 1.7 1.4 2.2.1.1.2.2.5.4l0 0c1 .8 1.9.5 2.2-.6.6-1.4-.6-1.6-1.6-1.6v.1l-.2-.1c0 0 0-.1.1-.1.1-.7.7-1.4.4-2C140.8 260 140.6 259.1 139.8 257.8zM138.4 262.3c.1 0 .1 0 .2-.1.1.1.2.2.2.4L138.4 262.3zM147.3 290.7c0 0-.1 0-.2.1-.1-.1-.5-.1-.6-.1-.2.1-.5.2-.7.7h.1c0 0 0 0 0 .1.4-.1.8.2 1.2-.1l0 0 0 0 .1-.1h.1C147.4 290.9 147.4 290.8 147.3 290.7zM321.5 245.7l-.2 1.1c-.1-.4-.4-.8-.4-1.1-.2-.1-.4-.1-.6-.4-.8-.8-1.3-1.9-.5-3-.1-.1-.2-.2-.5-.4l.7-.2c.2-1.1 1.2-1.7 2.5-2.3l-.5 2.5h.1c.7.8.7 1.9.1 3C322.2 245.3 321.8 245.7 321.5 245.7zM303.8 62c.6-.4.4-.8 0-1.2-.4-.4-.7-.2-1 .1-.2.2-.4.7 0 1.1C303.1 62 303.5 62.1 303.8 62zM223.1 96.5c-.1.2-.1.2-.2.5 0 0 .2.1.4.1s.1-.2.2-.5C223.5 96.6 223.4 96.5 223.1 96.5zM228.6 98.2c-.1-.1-.1-.4-.2-.5 0 0-.1.1-.4.1.1.1 0 .4.2.5C228.4 98.4 228.5 98.2 228.6 98.2zM182 332c-.4-.5-.6-1.3-1.1-1.9-.5-.5-.6.2-.8.6-.4.7-.5 1.4.5 1.9C181 332.8 181.5 332.7 182 332zM138.3 204.1c0-.5-.4-1.1-.5-1.7s-.1-1.3-.8-1.4c-1-.1-1.1.8-1.2 1.6C135.4 205.1 136.8 204.6 138.3 204.1z" class="color7cbac1 svgShape"></path>
      <path fill="#9e9e9e" d="M180 329.8c-.2-.1-.5-.1-.7-.4-.4.2-.2.5.1.6.1.1.2.1.4.2C180.2 330.3 180.4 330.2 180 329.8zM353.9 32c.4 1.4 1.7 1.2 2.8 1 .5-.1.8-.5 1-1 .1 0 .4-.1.5-.1.8-.4.5-1.1.4-1.8-.4-.5-.5-1.6-1.2-1.3-.5.1-.7.5-.7.7-.2 0-.5 0-.8.2 0 .2-.2.7-.1 1h-.1C355 31.1 353.8 31.1 353.9 32zM278.8 55.9c0-.4 0-1-.5-1.1-.5-.2-.7.1-.7.6 0 .6.2 1 .8 1.1C278.4 56.6 278.6 56.1 278.8 55.9zM151.4 327.5c.8.4 1.7.1 2.4-.6.4 0 .7.1 1 0 1.1-.2 1.9-1.1 2.8-1.8.4.1.6.2.8.4l-3.1 3.9c1.6-1 2.4-2.5 3.1-3.9.8.7 1.1 2 1.7 2.9.1.1.5.1.7.1.5-.4.2-3.8-.7-4.2-.4-.1-.8-.2-1.3-.2l.1-.1c0-.2.1-.4.1-.6l.4-.1c-.1-.1-.2 0-.4 0 .1-.1.1-.1 0-.2-.1-.2-.6-.2-.8-.2-1.2.4-2.4.7-3.5 1.2-.1-.2-.4-.5-.6-.7-.8-.4-1.6 0-2 1-.7.6-.8 2-.6 2.8l-.2.1c.1.1.2 0 .4 0C151.3 327.4 151.4 327.5 151.4 327.5zM155 325.1l.6-.2C155.5 324.9 155.2 325.1 155 325.1L155 325.1zM196.8 309.3c.2 1.2.6 2.3 1.7 2.8.1.2.4.4.8.5 1.3-.1 1.6-1.3 1.8-2.3-.1-.8-.6-1.6-1.2-1.4-.6 0-.8.4-1.1.8-.4-.4-1-.7-1.4-.8C197.2 308.9 196.8 309.2 196.8 309.3zM153.2 90.5c-.4-.6-1-.8-2-.7-.4.4-1.3.7-1.9 1.6-.2.8.1 1.4.6 2.2 1 1.1 1.9 2 2.8 3.4.6 1 1.1 1.6 2.2.7 1-.6 2-1.6 1.2-2.6C154.8 93.6 154.1 92 153.2 90.5zM224.3 87.6c-.1.1-.1.6-.2.8.7.4 1.7.4 2.2-.2.4-.1.5-.6.7-.8C226 86.9 225.3 87.2 224.3 87.6zM233.3 48.8c1.2-.2 2.3-.6 2.6-1.8.7-2-.8-2.9-2.4-3.5-.1.1-.1.1-.1.4 0-.4-.1-.7-.1-1 .1.2.2.5.2.6.1-.5.7-1.1-.4-1.2 0-.1-.1-.2-.1-.2l-.5 3.2c-.5-.1-1.1 0-1.6 0h-.6v.1h-.1c-.8.7-.6 1.6-.1 2.3.5.8 1.1 1 1.7.8v.1l-.1.1h.1C232.5 48.9 232.8 48.8 233.3 48.8zM158.3 193.1c.2 0 .5-.1.7-.2 0-.2-.1-.5-.6-.4-.1 0-.2.1-.4.1C157.9 192.9 157.8 193.1 158.3 193.1zM85 253.3c.2-.1.7-.2.8-.5.4-.6.4-1.1.1-1.6l0 0 .7-1.4c.1.2.2.4.5.5.4.2.6.5 1 .5.1.1.1.1.1.2.5 1.2.5 1.2 1.3 1.2 1.3.1 2.6.1 2.3-1.9l-3-.7c-.1-.2-.4-.4-.7-.6-.2-.1-.5-.4-.7-.5l1.1-2c-2.3.5-3.5 2.2-3.7 4.2-.1.1-.2 0-.2.1-.4-.2-.7-.2-.8.2-.1.1-.1.2-.2.4s-.1.1-.2.1c-.4.4-.6 1-.1 1.2.4.4 1 .5 1.3.5-.2 1.3-.8 2.5-1.3 3.7L85 253.3zM264.9 41c.6 0 .7-.4.6-.8-.1-.5-.8-.7-1.3-.7-.6 0-.7.4-.6.8C263.7 40.8 264.3 41 264.9 41zM208.4 148.3c-.1-.1-.1-.1-.2-.1h-.2c0-.2-.1-.4-.1-.6l-3.1 2c1.4.4 2.9.7 3.2-.8l0 0c0 0 .2 0 .2-.1.1-.1.1-.1.1-.2h.2C208.4 148.3 208.4 148.3 208.4 148.3zM155.2 198.9l2.3-1.2c0-.1-.2-.6-.4-.6C156 197 155.4 197.9 155.2 198.9zM141.4 194.5c-.6.1-1.1.4-1.2.8-.2.5.1.8.5.8.7 0 1.3-.4 1.6-1.1C142.2 194.7 141.8 194.5 141.4 194.5zM171.4 327.9c-.1.6.1 1.2.2 1.6L171.4 327.9zM170.4 317c-.1-.1 0-.2 0-.2C170.2 316.8 170.1 316.9 170.4 317L170.4 317zM171.9 317.1c-.2-.1-.4-.1-.6.1-.1.1 0 .2 0 .4C171.5 317.4 171.8 317.4 171.9 317.1L171.9 317.1zM211.4 246.4c-.7.1-.5.8-.5 1.4 0 .7.4.8 1.1.6 1.4-.5 3-.1 4.4.1.5.1.8.1 1.6 0 0-.2 0-.2 0-.4.4 0 .7-.1 1-.4.2-.5.4-1.2-.5-1.6-.4-.1-.6-.1-1 0-.2-.6-.5-1.1-1.3-1C214.6 245.3 213.1 245.8 211.4 246.4zM168.8 319.5L168.8 319.5c-.5-.1-1-.2-1.1.2-.1.6.6 1.2 1 1.1C169.3 320.6 168.6 319.9 168.8 319.5zM169.8 318.9c-.2.1-.6.2-.8.4l-.1.1C169 319.3 169.4 319.3 169.8 318.9 169.6 319 169.8 318.9 169.8 318.9zM346.1 197c-1.3-.6-2.6-.6-3.9.2-.1.2-.1.6 0 .8.1.1.1.1.2.1l-.1.1c-.4.8-.1 1.7.6 1.9.1.1.4.1.6.1.1 1 .4 1.9.7 2 .4.2 2.3 0 3.5-.2-.4.7-.5 1.4.1 1.9l0 0-.1.1c.1.7.4 1.2 1.2 1.3.2.1.6 0 .8 0 0-.4-.2-.7-.5-1.1.2-.1.6-.2.8-.4.6-.2 1.1-.7 1.8-.7.6 0 1.3-.4 1.3-.8 0-.2 0-.2-.1-.2.1-.1.1-.1.1-.2h-.4c-.4-.1-1.1.2-1.3-.1-.8-1.4-2-1.7-3.4-.7-.1-1.2-1-2.8-1.9-3.6C346.6 197.3 346.6 197.2 346.1 197zM171.7 329.6l.5 5C173 332.8 172 331.1 171.7 329.6zM154.2 312.2c-.1-1.3-1.2-1.4-2.2-1.2-.5.1-1.1.4-1.2.7l-.8-.6c-1.1 1.2.1 2.2.7 2.8 1.6 1.4 4.1 1.4 5.9 2.5l-2.8-2.2C154.7 313.9 154 312.9 154.2 312.2zM225.4 96.3c-1 .5-1.1 1.4-.5 2.3.5.7 1.4 1.1 1.7 2 0 .5.6.8 1.1.5.4-.1.5-.6.4-.8-.2-.8-.5-1.8-.8-2.6C226.8 97 226.6 95.6 225.4 96.3zM150.8 193.5c.2 0 .6-.4.6-.5.1-.5-.4-.7-.8-.7-.2-.1-.7.1-.7.5C150.1 193.4 150.5 193.6 150.8 193.5zM229.1 97.5c.1-.1.1-.2 0-.4 0 0-.2-.1-.4 0 .1.1.1.4 0 .4C229 97.6 229.1 97.5 229.1 97.5zM113.7 245.9c-.1 0-.2 0-.2 0-.1 0-.1.1-.1.2.1 0 .1 0 .2 0C113.6 246.3 113.6 246 113.7 245.9zM149.8 186.9c-.6.2-.8.7-.8 1.3-.1-.1-.2-.1-.6-.2-.6 0-1.2 0-1.6.7.2.5.6.6 1.1.7.4 0 .8-.1 1.1-.2.2.8 1.2.5 1.9.4.5-.2 1.3-.4 1.4-1.1C152.3 187.8 150.5 186.6 149.8 186.9zM226.4 91.8h-.1c-.1.4 0 .5 0 .7l0 0 0 0c0 0 .4-.1.6-.5C226.6 91.9 226.6 91.9 226.4 91.8l1.1-3.7C227.1 89.4 226.7 90.6 226.4 91.8z" class="color7cbac1 svgShape"></path>
      <path fill="#9e9e9e" d="M227.3 100.9c0-.5-.2-1-1.2-1-1 .8-2.2 1.8-2.3 3.7 0 .1.2.2.5.4-.2.5-.2.8-.1 1.3 0 .1.6.2 1 .1.6-.2 1.1-.7.8-1.3 0-.1-.1-.4-.4-.5C226.5 103.2 227.3 102.2 227.3 100.9zM323.2 460.5c.1 0 .1-.1.2-.2.1-.1.4 0 .4 0-.1 0-.1.1-.2.2C323.3 460.6 323.3 460.5 323.2 460.5zM223.2 94.3c.1 0 .6-.2.7-.4.2-.2 0-.5-.5-.4-.2.2-.6.5-.7.6C223 94.2 223 94.4 223.2 94.3zM304.5 442.2c.4-.4-.2-.7-.7-.8-.5 0-1 .1-1.2.7.1.2.5.6.6.6C303.5 442.4 304.3 442.4 304.5 442.2zM224.3 88.1c-.1.4.4.6 1 .8l-.6-1.4C224.6 87.7 224.4 87.8 224.3 88.1zM185.7 329.3c0 0-.1.1-.2.1C185.5 329.6 185.5 329.4 185.7 329.3zM171.4 326.3c.2 0 .2-.1.2-.1S171.5 326.2 171.4 326.3zM83.6 214.4c.1.1.2 0 .4 0-.1-.1 0-.2-.1-.2-.1-.1-.2 0-.2-.1C83.6 214.3 83.5 214.3 83.6 214.4z" class="color7cbac1 svgShape"></path>
      <path fill="#9e9e9e" d="M223.8 93.3c-.2-.1-.4 0-.7.1.1.1.1.4.1.4.2.1.4 0 .5 0C224 93.7 224 93.5 223.8 93.3zM150 152.1c-.1.2-.1.4-.1.7-.6-.2-2.5.1-3.6.5-.5-.5-.7-1.1-1.3-1.6-.1-.1-.5-.1-.7-.1-.1.1-.1.5 0 .8-.1 0-.4-.1-.5-.1-.5-.1-1.2-.4-1.3.1-.4 1.1.4 1.4 1.1 1.8.4.1.8.1 1.2-.2.2.8.7 1.6 1.1 1.8.1 0 .5 0 .6-.1.7.4 1.4.7 2.2.6.2.1.4.1.6.2.5.1 1.3.4 1.4-.5.1-.2-.1-.5-.2-.6.4-.7.2-1.4-.1-2l0 0c1.4.8 1.8-.5 2.4-1.3.2-.4.2-1-.4-1.1C151.3 150.5 150.5 151.3 150 152.1zM189.6 108.5c.1-.4 0-.6-.2-.4C189.4 108.3 189.5 108.5 189.6 108.5zM190 108.9c0 0-.1-.2-.2-.4C189.7 108.9 189.7 109.1 190 108.9zM198.8 102.4c-.1.2.2.5.4.7.7.1 1-.2 1.1-.7.1-.2 0-.7-.1-.7C199.3 101.4 199 101.8 198.8 102.4zM178 106.4c-.4-.1-.7-.2-1.1.2-.1.5.1.8.6 1.1.2.1.7 0 .7-.1C178.6 107 178.5 106.5 178 106.4zM149.5 193.5c-.2-.5-.6-1-1-1.6L149.5 193.5zM260.7 451.3c.1-.1.1-.2 0-.4-.2-.1-.5-.5-.8-.2-.1 0-.1 0-.2 0l.1.1c-.1.1-.2.4 0 .6.1 0 .2.1.4.2C260.5 451.5 260.5 451.4 260.7 451.3v.2C260.7 451.4 260.7 451.4 260.7 451.3zM208.4 177.2c.6.5 1.3.2 1.4-.5.2-.8-.5-1.4-1.2-2-.5.1-1.1 0-1.2.2C207.3 175.8 207.7 176.6 208.4 177.2zM177.5 114.9c.2-1.4-1-1.8-2-2-1-.2-1.4.1-1.8 1.4.1.7.8 1.2 1.8 1.4C176.3 115.7 177.3 115.6 177.5 114.9zM174.5 109.7c-.1 0-.2-.1-.5 0-.4.1-.4.5.1.6.2 0 .5-.1.8-.1C174.9 110 174.8 109.9 174.5 109.7zM324 459.5c0-.1.1-.1.2-.2 0 .1.1.2.1.4 0 .1-.1.1-.2.2C324.1 459.8 324.1 459.6 324 459.5zM328.1 467.7c-.6.4-.8-.2-1-.6-.2-.8-.4-1.6.6-2.2.4 0 1 0 1.2.5C329.4 466.3 328.9 467.2 328.1 467.7zM240.1 461c1.2-.2 2.4-.7 2.8-2.2.1-.4-.4-.7-1-.6-.8-.1-1.4-.2-2.3-.2-1.1 0-1.1 1-1.1 1.7C238.6 460.6 239.3 461.1 240.1 461zM389.7 62.6c-.1.1-.1.1-.2.4 0 0 .1.1.2.1.1 0 .1-.1.2-.4C389.9 62.7 389.8 62.6 389.7 62.6zM381.9 58.2c0 1 .8 1.3 1.7 1.3.7-.1 1.1-.4 1.2-.7.1.7.2 1 .4 1.1.2.4.5.8.7.8.7 0 .8-.7.7-1.2-.1-.8-.5-1.6-.7-2.3 0-.1-.6-.1-.7-.1H385c.1-.2-.1-.5-.1-.8-.2 0-.7 0-1 0C382.6 56.2 381.8 56.8 381.9 58.2zM324.5 480.2c.2.2.8.6 1.6.7-.1.1-.1.2-.1.5 0 .1 0 .1 0 .2-.4.2-.7.6-.6 1.2.1.6.6.8 1.2.8.2.2.5.5 1.1.6 1 0 2.3.4 3-.8.1-.1-.1-.7-.5-1.1h.1l1.1 1c.2.1.4.5.6.7-.6.6-1.2 1.4-2 1.9l6.7-3.5c-.7-1.2-1.9-.6-2.5-.2-.1.1-.2.2-.6.4 0 0 0 0 0-.1-.4-.5-.6-2-1.4-1.3-.7.7-1.4.8-2.2.8l.1.1c0 0 0 0-.1 0l-.1-.1c0 0 0 0 .1 0l-2-2 0 0-1.8-2.2c-.1 0-.2 0-.4 0l-.6-.7c-.1.2-.2.5-.5.8h-.1c-.7.4-.8 1.1-.5 1.7C324.2 479.9 324.4 480.1 324.5 480.2zM394.7 62.2l-.8-.6C394.1 61.9 394.4 62.1 394.7 62.2zM300.4 68.3c-.7-.5-1.4-.1-1.7.7-.2.6-.1 1.4-.6 2-.4.2-.4.7.2 1 .2.1.6.1.7-.1.5-.5 1.1-1.1 1.4-1.7C300.5 69.5 301.4 68.8 300.4 68.3zM312.5 218.5c-.4.1-.8 0-.8-.7.5-1 1.1-1.9 2.4-2.4.1 0 .2.1.4.2.2-.2.6-.4 1-.4.1 0 .2.5.2.7 0 .5-.4 1-.8.8-.1 0-.2 0-.4-.1C314.1 217.6 313.5 218.3 312.5 218.5zM389.9 60.9c.1 0 .5-.1.6-.2.2-.2 0-.5-.4-.4-.2.2-.5.4-.6.4C389.7 60.8 389.7 61 389.9 60.9z" class="color7cbac1 svgShape"></path>
      <path fill="#9e9e9e" d="M390.4 60.2c-.1-.1-.2 0-.6 0 0 .1.1.2.1.2.1.1.2 0 .5 0C390.5 60.4 390.5 60.3 390.4 60.2zM301.3 177.5c.4-1 1.3-1.1 2.3-1 1.7.1 1.8 1.3 1.7 2.6-.1 1.1-.5 2-1.7 2.6-.4 0-2.2-3.1-2.3-3.9l-.1-.2C301.3 177.5 301.3 177.5 301.3 177.5zM149.5 193.5c.2.5.4 1.2.4 1.7.2 0 .4 0 .7 0L149.5 193.5zM175.5 110.7c-.1.1-.2.2-.4.1.1 0 .2.2.2.2.1 0 .2 0 .4-.1C175.7 110.8 175.6 110.7 175.5 110.7zM274.2 33.1c-.5.7-.2 1.3 0 2.2V33.1z" class="color7cbac1 svgShape"></path>
      <path fill="#9e9e9e" d="M274.3 33.1c.4.4.8.6 1.3.8.1 0 .2 0 .5 0-.1 0-.2 0-.5-.2C275.2 33.6 274.7 33.4 274.3 33.1c-.2-.7-.5-1.6-1.2-1.3-1 .2-1.2 1.7-.7 2C273.1 34.7 273.4 33 274.3 33.1zM274.1 35.3v2.2C274.6 36.7 274.3 36.1 274.1 35.3zM451.2 111.9c-1.2 1-1.7-.7-2.4-1.1-1-1.3-.2-2.3 1-3.1 1-.6 2-.8 2.6.5C453 109.7 452.3 110.9 451.2 111.9zM318.7 424.7c-.5-.2-1.1-.1-1.4-.4-.6-.4-1.1-.7-.7-1.6.5-.5 1-.2 1.3.2C318.3 423.4 318.9 424 318.7 424.7zM120.6 189c-.8.7-1.7 1.4-2.9 1.6 0 .1.1.4.4.6.5.6 1.2.6 1.9.5 1.3-.4 1.8-1.4 2.6-2.3.5-.5 1.1-1 .7-1.7v-.1l0 0 0 0c-.6-.8-1.4-.4-2.3-.2-1.3.2-2.3.8-2.9 2-.1.5-.4.8-.4 1.3L120.6 189zM327.5 462.3c0 .4-.1.7-.4.8-.4.1-.6-.1-.5-.5.2-.2.5-.5.6-.7C327.4 462 327.6 462.1 327.5 462.3zM372.1 271.6c.7 1.3.6 2.4-.6 3.2-.8.7-1.7.5-2.2-.5-.6-1.2-.2-2.3 1-3.1C371.2 270.9 371.7 271 372.1 271.6zM172.7 107.9v.1l0 0V107.9zM172.3 106.9l1.1.4C173 107.2 172.6 107 172.3 106.9zM388.6 51l-1.6.5c0-.1 0-.1 0-.2 0-1.3 2.4-4.4 3.5-4.5.6 0 3.4 2.5 3.5 3h.1H394c0 .2-.2.7-.5 1.1.4.2.8.7.6 1.2v.1l0 0c0 0 0 0-.1 0-.4.8-1.3.6-1.9.6-.4 0-1-.1-1.2-.2-.4.1-1 .2-1.3.1-1 0-2-.1-2.3-1.2C387.5 51.2 388 51.1 388.6 51zM315.7 438.3c.1.4-.1 1-.6 1.1s-.8-.2-.8-.7c0-.7.2-1.1 1-1.1C315.5 437.7 315.7 438.1 315.7 438.3zM362.7 229.3c-.7-.1-1.3-.8-1.1-1.4.4-1.2 1.2-1.1 2-.6.5.4 1.4.4 1.1 1.2C364.4 229.3 363.6 229.5 362.7 229.3zM192.4 175c-.7.8-.8 2.3 0 3.1.8.8 1.7-.1 2.3-.8.5-1 1.3-2 .1-2.9C194 173.8 192.7 174.1 192.4 175zM304.3 436.3l2.6-1.2C305.8 435.3 305.1 435.7 304.3 436.3zM313.8 433.4h.1l0 0H313.8zM397 29.9c-.4.1-.6.4-1 .6-.1.1-.1.7 0 .8.4.8 1.2 1 2 1 .6 0 1.3-.1 1.8-.6 0 .4.2.6.4.7 2.6.1 3 2.4 4.1 4.2.2.2.7.2 1 .2.6-.4 0-4.8-1.1-5.4-1-.2-2-.4-3.4-.4-.1 0-.4 0-.4.1 0-.1.1-.2.1-.4 0-.1 0-.4-.1-.5.2-.2.4-.6.5-.8.5-1.3-.7-1.4-1.7-1.8-.8 0-1.6-.5-2 .5-.1.4-.1 1 .1 1.6 0 0 0 .1-.1.1v-.1C397 29.7 396.9 29.8 397 29.9zM244.3 466.5c.1-.2.5-.6.5-.8 0-.8-.6-.7-1.2-.7-.4.1-.6.5-.4 1C243.3 466.1 243.6 466.6 244.3 466.5zM87.5 204.7l-.5 1.2C87.3 205.6 87.5 205.2 87.5 204.7zM246.9 465.4c0-.1 0-.2 0-.4-.1.1-.4.1-.7.2-.1 0 0 .2 0 .4C246.5 465.5 246.7 465.4 246.9 465.4zM335.4 153.3c.4 0 .6 0 1-.1L335.4 153.3c.1.1 0 .4.1.4.1.5 1.2 1.3 2.2 1.9 0 .2 0 .5.1.7.2 1 1 1.1 1.8 1 .7-.4 1.1-.6 1.2-1.2.6-1.1 1.6-3.1 1.4-3.6l0 0c.1-.1.2-.1.4-.2l-.4.1c-.6-1.1-3.7-1.7-5.1-1C336.2 151.9 335.5 152.3 335.4 153.3zM170.6 61.3c.5-.6 0-1-.5-1.2-.5-.2-.7.1-.8.5-.1.4 0 .8.4 1.1C170 61.4 170.5 61.5 170.6 61.3zM338.7 35.3c-.7-1.3-2.8-2.6-3.9-2.4-.6.1-1 .5-.6 1.1.5 1 1.3 1.8 2.3 2.3-.2.2-.2.4-.5.6-.5-.1-.8-.6-1 .1-.1 0-.1-.1-.4 0l3.6 1.3c.4.1.6.4.8.4.4.2.7.4.8.2h.4c0-.1 0-.1-.1-.2.2-.2.2-.5.2-.8 0-1.1-.2-1.9-1.1-2.5C339.1 35.4 339 35.3 338.7 35.3zM335.8 37c.1 0 .1 0 .2-.1l0 0 0 0C336 37 335.8 37 335.8 37zM186 63.7c-.1.1-.1.1-.4.1 0 0 .1.1.2.2.1 0 .1-.1.4-.1C186.3 63.8 186.1 63.7 186 63.7zM201.1 71.8c0-.1-.1-.2-.1-.4 0 0-.1 0-.2.1 0 .1 0 .2.1.4C200.7 71.9 200.9 71.9 201.1 71.8zM213.1 60.3c-.4.8 0 1.6.8 1.9.6.2 1.1.2 1.4 0-.2.6-.2 1-.2 1.1 0 .5 0 1 .2 1.1.6.4 1.1-.2 1.2-.7.2-.7.4-1.6.5-2.4 0-.1-.5-.5-.6-.5h-.1c.2-.2.1-.5.2-.7-.2-.1-.6-.4-.8-.4C214.6 58.9 213.7 59 213.1 60.3zM196.1 78.4c-.1.1-.1.2.1.5.2 0 .6.1.8 0l.1-.1h.1l-.1-.1c0-.1-.1-.2-.4-.4-.1-.1-.2-.1-.5-.1l0 0-.2-.1C196.1 78.3 196.1 78.3 196.1 78.4zM192.3 74c.7-.4 1.1-1 .6-1.9-.1-.1-.1-.2-.4-.4.5-.4.8-1 .6-1.6-.5-.8-1.2-.6-2-.5-.6.2-1.7.2-1.6 1.3.2 1 .8 1.1 1.6 1.1-.2.4-.4.8 0 1.6C191.3 74.1 191.7 74.2 192.3 74zM190.6 65.7l-.4-.8C190.3 65.1 190.5 65.5 190.6 65.7zM187.6 64.5c-.8-.1-1.3.5-1.3 1.3 0 .7.5 1.3.2 2-.2.4 0 .8.6.7.2 0 .6-.1.6-.5.2-.6.5-1.4.6-2C188.2 65.6 188.7 64.6 187.6 64.5zM187 62.2c.1 0 .5.1.7.1.2 0 .2-.4-.1-.5-.2 0-.6.1-.7 0C187 62.1 186.9 62.2 187 62.2z" class="color7cbac1 svgShape"></path>
      <path fill="#9e9e9e" d="M187.8 61.9c-.1-.1-.2-.1-.5-.2 0 .1 0 .2 0 .2.1.1.2.1.4.2C187.8 62.1 187.8 62 187.8 61.9zM203.1 74.7c0-.1 0-.1-.1-.2l.1 1.6.1-.1V76C203.4 75.5 204.1 75.1 203.1 74.7zM189.9 280.5c.4.4.7.8 1.2 1 .6.1 1.1 0 1.1-.7.1-1-.2-1.9-.6-2.8.8.1 1.7.4 2.4.4 1.3-.1 1.8-1.1 1.8-2.4 0-.6-.2-1-.6-1.2v-.1c0-.1-.1-.1-.2-.1l0 0c-.2-.1-.4-.1-.7-.1 0-.1 0-.1 0-.2l-.8.7c-1.1.6-2 1.3-2.9 1.8l0 0c-.1-.1-.2-.2-.4-.2-.4.1-.8 0-1 .2-.2.6-.2 1.2-.1 2-1-.8-1.7-1.8-2.4-2.8-.2-.2-.6-.5-1-1-.2.2-.6.6-.8.8-.4 1-1.3 1.9-.4 2.8 1.2 1.1 2.6 1.8 4.1 2.5C189.3 281.3 189.6 280.7 189.9 280.5zM262.3 122.1c.2-.7-.4-.8-.8-1-.5-.1-.7.4-.6.7 0 .4.2.7.7.8C261.7 122.4 262.1 122.3 262.3 122.1zM349.6 440.5c-.2-.4-.6-.7-1.1-.4-.5.2-.4.6-.2 1 .4.4.8.6 1.3.2C349.9 441.2 349.9 440.7 349.6 440.5zM314.3 110.7c-.8.5-1 1-.8 1.9.2.6.1 1.1.7 1.1.8.1 1.3-.1 1.4-1 .2-1 .1-1.9-.2-2.8C315.1 110.2 314.8 110.5 314.3 110.7zM299.9 118.9c.1-1.4-.8-3.7-2-4.2-.5-.2-1.1-.1-1.1.6-.1 1.1.1 2.3.7 3.2-.2.1-.5.1-.7.2-.4-.4-.4-1-.8-.5-.1 0-.1-.1-.2-.2l2.3 3.1c.2.4.2.6.5.8.1.5.4.6.6.7l.2.2c0-.1 0-.1 0-.2.2-.1.5-.4.7-.6.6-.8 1-1.7.5-2.6C300.2 119.3 300.1 119.1 299.9 118.9zM296.6 118.7c.1 0 .1 0 .2 0l0 0 0 0C296.7 118.8 296.6 118.7 296.6 118.7zM277.7 119.3c-.1.1-.1.1-.2.2 0 0 .1.1.2.1.1 0 .1-.1.2-.2C277.9 119.4 277.8 119.3 277.7 119.3zM294.6 122.3c-.1-.1-.1-.2-.2-.4 0 0-.1.1-.2.1.1.1 0 .2.2.4C294.3 122.5 294.4 122.4 294.6 122.3zM270.9 113.4c-.1 1 .6 1.4 1.3 1.6.7 0 1.1-.1 1.3-.5 0 .7 0 1 .1 1.1.1.4.2 1 .6 1 .7.1 1-.6 1-1.1 0-.8-.1-1.6-.4-2.4 0-.1-.6-.2-.7-.2H274c.1-.2 0-.6 0-.8-.2 0-.7-.1-1-.1C271.9 111.8 271 112.1 270.9 113.4zM291.9 130.1c0 .2 0 .4.2.5.2-.1.6 0 .7-.2v-.2l.1-.1h-.2c-.1-.1-.2-.1-.5-.2-.2 0-.4 0-.5.1l0 0h-.4C291.8 130 291.8 130 291.9 130.1zM286.8 127.2c.6-.6.7-1.3 0-2-.2 0-.2-.1-.5-.2.4-.5.5-1.2 0-1.7-.7-.7-1.3-.2-2 .2-.5.5-1.6.8-1.1 1.8.6.7 1.2.7 1.8.6-.1.4-.1 1 .5 1.4C285.9 127.6 286.4 127.6 286.8 127.2zM443.9 59.2c1.2.1 2.3 0 3-1 1.2-1.8-.1-3-1.3-4.1-.1.1-.1.1-.2.4.1-.2 0-.7.1-1 0 .2.1.5.1.7.2-.5 1-.8 0-1.2 0-.1 0-.2 0-.2l-1.3 3c-.5-.2-1-.2-1.4-.5l-.6-.2v.1h-.1c-1.1.5-1 1.4-.7 2.2.2 1 .7 1.2 1.4 1.3v.1l-.1.1h.1C443.1 59.1 443.4 59.1 443.9 59.2zM282.7 119.9l-.6-.7C282.2 119.4 282.4 119.7 282.7 119.9zM279.4 119.7c-.8.1-1.1.8-.8 1.7.2.6.8 1.1.8 1.9-.1.5.2.7.7.6.2 0 .5-.4.5-.6 0-.7 0-1.6-.1-2.2C280.3 120.5 280.4 119.4 279.4 119.7zM278.2 117.8c.1 0 .6 0 .7-.1.2-.1.1-.4-.2-.4-.2.1-.5.2-.7.2C278.1 117.6 278.1 117.8 278.2 117.8z" class="color7cbac1 svgShape"></path>
      <path fill="#9e9e9e" d="M278.9 117c-.1-.1-.2-.1-.6 0 0 .1 0 .2 0 .2.1.1.2.1.5.1C278.9 117.4 278.9 117.2 278.9 117zM297.4 124.3c-.1-.1-.1-.1-.1-.2l.6 1.4v-.2l.1.1C297.9 125.1 298.4 124.5 297.4 124.3zM175.3 234.1c-.4.1-.6.2-1.1.5-.2 0-.2.6-.2.8.2 1 1.1 1.1 1.9 1.3.6 0 1.3.1 1.9-.2 0 .4.1.7.1.7 2.6.6 2.5 3 3.2 4.8.1.2.7.5.8.4.6-.2.8-4.7-.1-5.5-.8-.4-1.9-.7-3.2-1-.1-.1-.4 0-.4.1.1-.1.1-.2.2-.4.1-.1 0-.4 0-.5.2-.1.5-.5.6-.7.7-1.2-.5-1.6-1.3-2-.8-.2-1.4-.7-2.2.1-.2.4-.2 1-.1 1.6C175.5 234.1 175.4 234.2 175.3 234.1l.1-.1C175.3 233.8 175.1 233.9 175.3 234.1zM434.8 346.6c.1-.6.5-1.4.5-2.2 0-.7-.6-.2-1.1-.1-.7.4-1.3.8-.8 1.8C433.6 346.7 434.1 346.8 434.8 346.6zM461 339.6c-.6 1.1-1.1 2.2-.6 3.1-.1.2 0 .6.4.8 1.1.8 2 0 2.9-.5.5-.7.5-1.6 0-1.8-.4-.4-.8-.2-1.3-.1 0-.6-.2-1.1-.5-1.6C461.6 339.5 461 339.5 461 339.6zM507.2 312.4c-.6-.4-1 .4-1.3.8-.5.6-.4.8.4 1.2 1.4.6 2.4 1.9 3.2 3.1.4.4.6.6 1.2 1 .1-.1.1-.1.2-.2.2.2.6.4 1 .4.5-.2 1.1-.6.7-1.4-.1-.4-.4-.5-.7-.6.2-.6.4-1.1-.2-1.6C510.2 313.8 508.6 313 507.2 312.4zM439.4 347.2c0 0-.1 0-.2 0C439.1 347.2 439.2 347.2 439.4 347.2zM475 313.4c0 .6 0 1.1.4 1.6.4.5.8.7 1.3.1.7-.6 1.1-1.6 1.4-2.5.5.6 1 1.3 1.6 1.9 1.1.7 2.2.4 2.9-.6.4-.4.4-.8.4-1.3l.1-.1c.1-.1 0-.2-.1-.2l0 0c-.1-.2-.2-.4-.5-.5.1-.1.1-.1.1-.2h-1.1c-1.2-.2-2.3-.4-3.4-.6l0 0c0-.2 0-.4-.1-.5-.4-.1-.6-.5-.8-.4-.6.2-1 .7-1.4 1.4-.2-1.2 0-2.5 0-3.6 0-.4-.1-.7-.1-1.3-.4 0-.8 0-1.2.1-1 .5-2.3.6-2 1.8.2 1.6.7 3.1 1.3 4.7C473.9 313.6 474.7 313.5 475 313.4zM494.9 269c-.4-.2-.6-.2-1.1-.4-.1-.1-.6.4-.7.5-.5.8 0 1.6.5 2.3.4.5.8 1 1.6 1.1-.2.2-.4.6-.4.7 1.6 2.3-.1 3.8-.8 5.7 0 .2.2.7.4.8.6.2 3.7-3 3.6-4.2-.4-.8-1-1.8-1.7-2.9 0-.1-.2-.2-.4-.2.1 0 .2-.1.4-.1.1 0 .2-.2.4-.4.2 0 .7-.1 1-.1 1.3-.4.7-1.4.4-2.4-.5-.7-.6-1.6-1.7-1.3-.4.1-.8.5-1.1 1.1 0 0-.1 0-.1-.1h.1C495.1 268.9 495 268.9 494.9 269zM137 363.4c.2.5.5 1 1 1.2s1.1.2 1.2-.4c.4-.8.4-1.8.2-2.9.7.4 1.4.8 2.3 1.1 1.3.2 2.2-.5 2.4-1.7.1-.5 0-1-.2-1.3v-.1c0-.1-.1-.1-.2-.2l0 0c-.2-.2-.4-.2-.6-.4 0-.1 0-.1.1-.2l-1 .5c-1.2.2-2.3.6-3.4.8l0 0c-.1-.1-.2-.4-.4-.4-.5 0-.7-.2-1 0-.4.5-.6 1.1-.7 1.9-.7-1.1-1.1-2.3-1.4-3.4-.2-.4-.4-.7-.6-1.2-.4.2-.8.4-1 .6-.6.8-1.8 1.4-1.1 2.5.8 1.3 1.9 2.5 3.1 3.7C136.1 364 136.6 363.7 137 363.4zM326.8 223.8c-.1.1-.2 0-.4-.1 0 0 0-.2.1-.2.1.1.2.1.4.1C326.8 223.4 326.8 223.7 326.8 223.8zM273.9 240c.1 0 .1-.1.2-.1.1.2.2.4.5.5.1 0 .1.1.2.1-.1 0-.1.1-.2.1-.2.4-.6.7-.1 1.1.5.4 1 .1 1.3-.1.4-.2.4-.8 0-1.1 0-.1 0-.1 0-.1.1 0 .2-.1.2-.2 1.2-3.4 4.3-5.9 3.8-9.8-.1-1 0-1.9-1-2.6-1.1-.7-2.2-.4-2.4.8-.1.6.1 1.1-.1 1.6-.5 1.8-1.2 2.2-2.8 1.2-.6-.4-1.2-1.1-2-.8-1.3.5-2.6 1-3.8 1.4-.1.1-.2.6-.2.8.1.4.4.6.7.5.5.2 1.1 0 1.7-.1.2-.1.4-.2.6-.5h2.2c.8.5 1.9.8 2.6 1.6l-1.1 3.6c-.1.4-.2.7-.4 1.1L273.9 240zM275.1 233.1h.4C275.3 233.2 275.2 233.2 275.1 233.1zM95.1 208.1c-.1.1.1.1.2.2 0-.2.2-.4.2-.2C95.3 207.7 95.1 207.9 95.1 208.1zM395 127.3c-.4-.6-.8-.7-1.2-.2-.6.4-.6 1.1-.4 1.7.4.6.8.6 1.2.2C395.2 128.6 395.2 127.9 395 127.3zM389.3 115l.1-.1c-.2-.2-.5-.4-.6-.5-.1 0-.2.1-.4.1-.1 0-.1 0-.2.1l.1.1c0 .1 0 .1.1.2C388.7 115 388.9 115.1 389.3 115L389.3 115 389.3 115C389.3 115.1 389.3 115 389.3 115zM389.3 119.8l-.8-.6c0 .4 0 .7-.1 1-.4-.1-.5-.2-.7-.4.2.5.7.7 1 .7-.1-.1-.4-.1-.5-.2C388.7 120 389 119.9 389.3 119.8z" class="color7cbac1 svgShape"></path>
      <path fill="#9e9e9e" d="M397.8 125.9c.7-1 .2-1.8-.5-2.5-1.2-1.3-2.2-.6-3.2.4-1 .8-1.4 1.8-.8 3 0 0 .1.1.2 0 0 0-.1.1 0 .2l1.1-.1c1 0 2.2-.4 2.8-.5l.4-.1-.1-.1C397.7 126 397.8 125.9 397.8 125.9zM390.8 126.7c-.6.1-.8.5-.7 1 .2 1.8 1.4 1.3 2.5 1.1.2-.1.4-.1.5-.2C393.4 126.6 392.2 126.6 390.8 126.7zM396.4 128.4c-.2.1-.2.2 0 .5 0 0 .1-.1.2-.2C396.4 128.5 396.4 128.4 396.4 128.4zM376.8 204.4c-.2-.5-.6-.5-1.1-.5-.6.1-1.1.1-1.1.8 0 .5.6.5 1.1.5C376.2 205.2 376.7 205 376.8 204.4zM436.8 172.8c-.7-.6-.8-2.5-2.2-1.7-.8.6-1.2 2.2-.6 3.4s1.9.8 3 .7C437.9 174.5 437.7 173.5 436.8 172.8zM356.4 114.4c-.1.2-1 .6-.2 1.2 0 .1 0 .1 0 .1l.1-.1 0 0 0 0 1.3-1.8h.1c1.6-.4 2.9-1.2 3.7-2.9-.1-.2-.1-.7-.5-.8-.4-.1-.8-.1-1.3 0 0 0-.1 0-.1-.1.1-.7.1-1.2-.6-1.4-1.1-.2-1.6.4-1.9 1.2-.2.1-.5.2-.8.5-1.6 1.6-.4 2.9.5 4.2l0 0c-.1.2-.1.6-.2.8C356.4 114.9 356.4 114.6 356.4 114.4zM370.1 109c-.1-1.6-1.8-1.4-2.9-1.9-.6-.2-1.3 0-1.3.8 0 1.8 1.3 1.9 2.4 2.5C369.1 110.5 370.1 109.9 370.1 109zM300.9 101.6c.4.5.4.8.2 1.2-.4.6-.7 1.2-1.4 1.2-.1-.5-.2-1 0-1.3C299.7 102 300.1 101.4 300.9 101.6zM325.7 442.5c-.2-.5-.4-1.3.6-1.3l-1.3-1.4c1 .1 1.1.8 1.4 1.6.5.1.5.5.6 1l0 0 0 0c-.1.1 0 .4-.1.5-.1.4-.4.7-.6 1.2C326 443.4 325.7 443 325.7 442.5zM324.6 419.9c-.2-.5 0-1 .5-1.2.2-.1.6-.1.8-.1-.1.4-.2.8-.5 1.2C325.2 420.1 325 420.1 324.6 419.9zM316.7 231.1c-.5.1-1.2 0-1.8 0 0-.6 0-1.2.2-1.8 0-.7-.1-1.6.7-1.8 1.1-.4 1.3.7 1.6 1.4 0 .2.1.2.1.5.1.1.2 0 .2.1.5.2.5.8.2 1.3C317.8 231.3 317.2 231.3 316.7 231.1zM322 423.3c.1 0 .4 0 .5.1.1-.4.4-.6.6-.8l-.1 1.1c.1.6.4 1.4-.4 1.6C321.6 425.2 321.8 424.1 322 423.3zM82.8 211.9L82.8 211.9c.4-.1.7-.4 1.2-.5-.2 0-.2-.1-.5-.1C83.1 211.2 82.9 211.1 82.8 211.9c-.1-.1-.2 0-.2.1L82.8 211.9zM311.3 420.4c-.2.4-.6.6-1.1.4-.6-.6-.4-1.1.1-1.3.2-.2.6-.2.8-.2C311.7 419.5 311.6 420 311.3 420.4z" class="color7cbac1 svgShape"></path>
    </g>
    <path fill="#6e6e6e" d="M469.3 137.1c0 0 0 20.6-17 22.4-17 1.8-19-17.2-8-23.9 11-6.7 4.7-19.5 17-21.1C473.6 113 469.9 131.8 469.3 137.1zM468 50.7c0 0-21.8 5.3 2.6 34.5 24.4 29.2 40.7 42.1 45 64.4 4.3 22.3 23.5 70.2 51.2 62.6C566.8 212.2 568.1 131.3 468 50.7z" class="color4c916b svgShape"></path>
    <path fill="#ffffff" d="M456.4,217.6c-2.6-0.8-5.6-0.4-8,1.1c-5.6,3.6-13.2,14.5-29.4,5.4c-15.8-8.9-21.9,3.5-37.7,1.3
		c-15.7-2.2,2.4-9.2,35.3-22.5c32.9-13.3,18.8-26.7,55.6-26.7s15-26.7,36-32.9c21.2-6.2,11.4-33.4,37.1-26.1
		c25.7,7.3,20.2-17,42.1-11.5c19.6,4.9,34.8,23.3,17.7,40.3c-3.4,3.2-7.5,5.3-12.1,6.2c-3.5,0.7-7.7,3.1-7.9,9.9
		c-0.4,11.7-19.9,17.5-27.9,18.1c-12.2,0.8-6.2,30.4-26.8,31.4c-21.2,1.1-19.4-9.7-30.3,1.1C487.8,224.6,475.7,223.4,456.4,217.6z" class="colore8e5e3 svgShape"></path>
    <path fill="#9e9e9e" d="M437.4,469.1c0,0,5.4-18.9,16.4-32.7c11-13.8-5.7-30,5.1-44.6c11-14.6,17.4-35.2,0-44.6
		c-17.4-9.5-17.6-5.4-29.3-19.1c-11.8-13.8-36.5-15.2-13.9-41.9c22.5-26.7,22.7-6.5,38.1-27.9c15.3-21.4,35.1,10.5,45.4,13.3
		C509.6,274.3,530.3,433.1,437.4,469.1z" class="color7cbac1 svgShape"></path>
    <path fill="#6e6e6e" d="M432.1,482.6c0,0-5.9-14.2,19-34.9c24.9-20.7,5.1-29.2,19.7-51.6s19.7-41.3,9.5-50.6
		c-10.3-9.5-31.8-14.6-37-27.5s-30,9.5-27.5-12.9c2.6-22.4,26.7-18.9,34.8-30.9c8.1-12,2.6-24.1,35.1-14.6c0,0,16.9-16.6,28.4-9.7
		c11.5,6.8,11.5,12.8,24.1,6.1c12.6-6.7,19,8.6,34.5,5.3c0,0,1.8,65.2-46.9,140.5C525.6,401.7,489.9,460.7,432.1,482.6z" class="color4c916b svgShape"></path>
    <path fill="#9e9e9e" d="M289.2,286.2c0,0-20.6-16.6-20.6-30.3s-28.7-29.1-41.3-28.4c-12.6,0.7-38.7,22.6-49.4,25.6
		c-10.7,3-33,30.2-28,51.1c4.9,20.9-14.4,30.9-14.8,42.4c-0.6,11.5,19.5,15.4,20.6,45.2c1.2,29.8,39.6,50.4,56.5,54.9L289.2,286.2z" class="color7cbac1 svgShape"></path>
    <path fill="#6e6e6e" d="M205.9,250.9c11.4-11.2,29.4-13.3,42.4-3.7c4.7,3.5,8.9,8.6,11.4,15.9c10.3,29.2,31.5,9.1,41.3,24.7
		c9.8,15.6,50.6,21.7,34.3,54.3c-16.3,32.7-23.2,65.7-48.9,66.3c-25.7,0.7-11.1,41-29.2,52.2s26.3,36-3.9,27.5
		c-30.3-8.5-46.7-44.6-59.6-49.8c-12.9-5.1-30.9-33.6-30.9-56.7c-0.1-23.1-25.7-18.9-15.4-38.7s12.9-31.8,9.5-48.1
		c-3.5-16.3-3.5-24.9,12.9-31.8C183,257.3,192.5,264.1,205.9,250.9z" class="color4c916b svgShape"></path>
    <path fill="#ffffff" d="M267.6 351.7c0 0 .5 21.9-30.9 20.2-12-.6-14.1-2.5-25.7 6-19.5 14.1-26.7 15.1-9.5-3.8 17.2-18.9-9.7-37 24.1-38.2 21.8-.8 4.7-20.3 29.2-32.7 14.8-7.4 21.2 12.6 43-2.3 8.9-6.1 20.2-7.4 30-3 2.4 1.1 4.8 2.5 7.3 4.4 0 0 12.4-22.4 36.5-19.7 24.1 2.6 28.4-17.2 41.3-14.6 0 0-11.4 20.2-38.7 29.2-28.7 9.5-27.6 44.9-53.3 36C305.9 328.1 308.4 369.3 267.6 351.7zM28.2 339.4c0 0-37.8-13.4-25.8-34.8s36.1-16.5 44.3-20.7c8.1-4.2 23.8-15.8 41.5-6.1 17.7 9.7 19 6.8 28.6-2.9 9.6-9.7 25.1-13.3 36.7-12.3 11.6 1 41.3-34.7 38.1-21.7-3.2 13-8.4 34.7-42.1 48.7-33.6 14-18.2 18.4-42.2 22.6-24.1 4.2-5.6 22.4-39.6 15.7C67.7 328 50.9 348.7 28.2 339.4z" class="colore8e5e3 svgShape"></path>
    <path fill="#9e9e9e" d="M264.8,20.8c0,0-16.3,21.9-6,35.2s34.3,1.7,52.4,20.6c17.9,18.9,25.7-24.1,51.5,13.8
		c25.7,37.8-30,55.9-41.3,57.6c-11.1,1.7-46.3-10.8-66.2,18.3s-39.5-14-47.3-14.8c-7.8-0.8-35.2,12.9-35.2,33.5s-3.9,51.2-14.6,42.7
		c-10.7-8.5-18.1-79,25.7-108.5s23.3-58.8,41.3-76S264.8,20.8,264.8,20.8z" class="color7cbac1 svgShape"></path>
    <path fill="#6e6e6e" d="M294,1c0,0,0,15.4-18.1,20.6s-46.4,19.7-29.2,38.7c17.2,18.9,30.9-2.6,53.3,23.2s33.5-19.7,50.6,9.5
		c17.1,29.2-19.6,40.3-33.9,40.3c-14.2,0-48-2.6-63.8,14.6s-7.2,22.4-34.7,0s-59.2,21.4-57.6,37.8c1.7,16.3,8.5,39.5-0.1,49.8
		c-8.5,10.3-20.2-32.2-18.2-62.5c2-30.3-18.5,14.1-29.8-16.5c0,0-1.1-17.9-17.2-19.7C95.4,136.8,131.6,19.9,294,1z" class="color4c916b svgShape"></path>
    <path fill="#6e6e6e" d="M191.2,212.6c0,0-7.4-6.5,0.6-19c1.3-2,2.5-4.1,3.4-6.3c1.6-3.9,5.4-10.3,13.5-6.5
		C220.1,186.4,211.4,227.4,191.2,212.6z" class="color4c916b svgShape"></path>
  </g>
</svg>
