<svg xmlns="http://www.w3.org/2000/svg" viewBox="0 0 512 512" id="SpaceScience">
  <g fill="#ffffff" class="color000000 svgShape">
    <path d="M208.554 244.382a23.312 23.312 0 1 0-23.312-23.312A23.339 23.339 0 0 0 208.554 244.382zm0-30.624a7.312 7.312 0 1 1-7.312 7.312A7.32 7.32 0 0 1 208.554 213.758zM334.4 303.715a35.274 35.274 0 1 0-35.274-35.274A35.314 35.314 0 0 0 334.4 303.715zm0-54.548a19.274 19.274 0 1 1-19.274 19.274A19.3 19.3 0 0 1 334.4 249.167zM268.366 302.758A19.963 19.963 0 1 0 248.4 282.8 19.985 19.985 0 0 0 268.366 302.758zm0-23.925A3.963 3.963 0 1 1 264.4 282.8 3.967 3.967 0 0 1 268.366 278.833z" fill="#ffffff" class="color000000 svgShape"></path>
    <path d="M69.788 195.159c-25.149 6.249-38.986 16.3-41.124 29.877-3.017 19.149 17.815 38.439 61.912 57.334a473.528 473.528 0 0 0 49.188 17.617c18.431 54.945 70.4 94.642 131.473 94.642a138.614 138.614 0 0 0 115.839-62.566c4.4-.258 8.7-.574 12.871-.96 47.772-4.424 73.524-16.376 76.54-35.526 3.9-24.778-33.864-45.989-68.118-59.923-9.871-66.829-67.6-118.283-137.132-118.283a138.721 138.721 0 0 0-120.651 70.421C118.129 187.54 90.262 190.071 69.788 195.159zm201.449 183.47a122.8 122.8 0 0 1-112.193-73.152 814.138 814.138 0 0 0 83.649 17.561c41.167 6.485 81.086 9.82 116.16 9.819 2.67 0 5.3-.026 7.916-.065A122.45 122.45 0 0 1 271.237 378.629zm176.1-104.185c9.229 7.109 14.095 13.9 13.349 18.643-1.2 7.642-18.219 18.01-62.211 22.084-.65.06-1.311.114-1.966.171A137.815 137.815 0 0 0 409.866 256c0-.793-.016-1.582-.03-2.371C425.638 260.505 438.463 267.613 447.334 274.444zm-176.1-141.073A122.584 122.584 0 0 1 377.87 316.5c-38.362 1.5-84.593-1.692-132.686-9.268a780.558 780.558 0 0 1-92.579-20.14A122.661 122.661 0 0 1 271.237 133.371zM135.017 281.756c-13.8-4.431-26.6-9.15-38.139-14.093-40.608-17.4-53.612-32.5-52.409-40.138 1.52-9.651 29.169-23.335 98.359-23.746a138.617 138.617 0 0 0-7.811 77.977zM172.783 388.111a8 8 0 0 0-6.458-5.445l-39.093-5.68-17.483-35.424a8 8 0 0 0-14.348 0L77.919 376.986l-39.093 5.68a8 8 0 0 0-4.433 13.646l28.288 27.573L56 462.82a8 8 0 0 0 11.607 8.434l34.966-18.383 34.966 18.383a8 8 0 0 0 11.607-8.434l-6.677-38.935 28.288-27.573A8 8 0 0 0 172.783 388.111zm-44.492 27.253a8 8 0 0 0-2.3 7.081l4.649 27.1-24.341-12.8a8 8 0 0 0-7.445 0l-24.341 12.8 4.649-27.1a8 8 0 0 0-2.3-7.081L57.169 396.169l27.213-3.954a8 8 0 0 0 6.023-4.377l12.17-24.659 12.171 24.659a8 8 0 0 0 6.024 4.377l27.212 3.954zM415.556 157.117l-3.639 21.213a8 8 0 0 0 11.607 8.434l19.051-10.016 19.052 10.016a8 8 0 0 0 11.607-8.434L469.6 157.117l15.413-15.024a8 8 0 0 0-4.434-13.646l-21.3-3.094-9.526-19.3a8 8 0 0 0-14.348 0l-9.525 19.3-21.3 3.094a8 8 0 0 0-4.433 13.646zm16.783-16.535a8 8 0 0 0 6.023-4.377l4.213-8.537 4.214 8.537a8 8 0 0 0 6.023 4.377l9.42 1.368-6.816 6.645a8 8 0 0 0-2.3 7.081l1.61 9.383-8.427-4.43a8 8 0 0 0-7.445 0l-8.426 4.43 1.609-9.383a8 8 0 0 0-2.3-7.081l-6.816-6.645zM211.556 82.117l-3.639 21.213a8 8 0 0 0 11.607 8.434l19.051-10.016 19.052 10.016a8 8 0 0 0 11.607-8.434L265.6 82.117l15.413-15.024a8 8 0 0 0-4.434-13.646l-21.3-3.094-9.526-19.3a8 8 0 0 0-14.348 0l-9.525 19.3-21.3 3.094a8 8 0 0 0-4.433 13.646zm16.783-16.535a8 8 0 0 0 6.023-4.377l4.213-8.537 4.214 8.537a8 8 0 0 0 6.023 4.377l9.42 1.368L251.416 73.6a8 8 0 0 0-2.3 7.081l1.61 9.383-8.427-4.43a8 8 0 0 0-7.445 0l-8.426 4.43 1.609-9.383a8 8 0 0 0-2.3-7.081l-6.816-6.645zM56.575 133.714a32 32 0 1 0-32-32A32.036 32.036 0 0 0 56.575 133.714zm0-48a16 16 0 1 1-16 16A16.019 16.019 0 0 1 56.575 85.714zM423.575 388a49 49 0 1 0 49 49A49.056 49.056 0 0 0 423.575 388zm0 82a33 33 0 1 1 33-33A33.038 33.038 0 0 1 423.575 470z" fill="#ffffff" class="color000000 svgShape"></path>
  </g>
</svg>
