<svg xmlns="http://www.w3.org/2000/svg" viewBox="0 0 64 64" id="rocket">
  <path fill="#ffffff" d="M35.1,49.13A3.56,3.56,0,0,0,34,48.05,3.25,3.25,0,0,0,35.11,47a3.31,3.31,0,0,0,1.07,1.07A3.71,3.71,0,0,0,35.1,49.13ZM16.5,9.54a3.25,3.25,0,0,0,1.08,1.07,3.48,3.48,0,0,0-1.08,1.08,3.56,3.56,0,0,0-1.07-1.08A3.22,3.22,0,0,0,16.5,9.54Zm7.54,40a.69.69,0,1,1,.68-.68A.68.68,0,0,1,24,49.51ZM46.33,13.66A3.69,3.69,0,0,0,47.66,15a3.82,3.82,0,0,0-1.34,1.34A3.79,3.79,0,0,0,45,15,3.79,3.79,0,0,0,46.33,13.66ZM9.54,37.93a3.79,3.79,0,0,0-1.33-1.34,3.64,3.64,0,0,0,1.34-1.33,3.69,3.69,0,0,0,1.33,1.33A3.82,3.82,0,0,0,9.54,37.93ZM33.92,8.27a.69.69,0,0,1,.69.69.68.68,0,0,1-.69.68A.67.67,0,0,1,33.24,9,.68.68,0,0,1,33.92,8.27ZM43.49,45A4.76,4.76,0,0,1,42,46.27c-.4-.74-.38-6.67,1.7-8.44A32.82,32.82,0,0,0,43.49,45Zm7-23.32a12.66,12.66,0,0,1,1.25,3.86,8.35,8.35,0,0,1-1.86-.07A7.75,7.75,0,0,1,48.13,25,12.74,12.74,0,0,1,50.53,21.7Zm-2.87,4.18a9.33,9.33,0,0,0,4.27.69c0,.11,0,.22,0,.33a8.38,8.38,0,0,1-4.44-.73ZM48,48.29a7.41,7.41,0,0,1-.1,1.24A7,7,0,0,1,45.35,54a6.92,6.92,0,0,1-1.05-5.07,7.14,7.14,0,0,1,.89-2.52l.17.07-.12,1.73a1,1,0,0,0,.87,1.09h.17a1,1,0,0,0,1-.77l.44-1.68h.18A6.74,6.74,0,0,1,48,48.29Zm-.86-3.36-.24.9-.25,1-.38,1.49a0,0,0,0,1,0,0l0,0,.11-1.54.07-1,.06-.93.09-1.34.23-3.28a.77.77,0,0,1,.29-.55.78.78,0,0,1,.48-.17h.13a.77.77,0,0,1,.53.34.8.8,0,0,1,.1.62l-.82,3.19Zm1.75.73-.3.08a5,5,0,0,1-.66.11l.27-1L49.3,40.7a1.78,1.78,0,1,0-3.5-.57l-.29,4.22-.08,1.1a6.54,6.54,0,0,1-.59-.3,3.75,3.75,0,0,1-.36-.24A35.88,35.88,0,0,1,44.8,37a36.55,36.55,0,0,1,2.33-9.92,9.52,9.52,0,0,0,2.41.74,9.19,9.19,0,0,0,2.51.06A36.37,36.37,0,0,1,51.13,38,35.71,35.71,0,0,1,48.93,45.66Zm2,2a4.08,4.08,0,0,1-1.08-1.62,32.08,32.08,0,0,0,2.11-6.92C53.34,41.49,51.53,47,50.9,47.7ZM49.12,30.46a2.46,2.46,0,0,0-1.86.44,2.44,2.44,0,0,0-1,1.62,2.49,2.49,0,0,0,2.06,2.86,2.69,2.69,0,0,0,.4,0,2.49,2.49,0,0,0,.4-4.95Zm1.07,2.7a1.48,1.48,0,0,1-.6,1,1.51,1.51,0,0,1-1.11.26,1.44,1.44,0,0,1-1-.6,1.41,1.41,0,0,1-.26-1.11,1.44,1.44,0,0,1,.6-1,1.41,1.41,0,0,1,.86-.28,1.06,1.06,0,0,1,.25,0A1.49,1.49,0,0,1,50.19,33.16ZM32.41,16.72l.42-1.88a12.87,12.87,0,0,1,1.55.73,13.81,13.81,0,0,1,6.85,9.53c-.77.11-2.42-.11-3,.57-.24.19-.54.72-.91.61s-.76-1.16-1.09-1.74a1.5,1.5,0,0,0-1.38-.87c-.43,0-1.27.15-1.28-.52s.07-1.62-.59-2.07l-2.37-1.84a.52.52,0,0,1,0-.85C31.23,18,32.3,17.49,32.41,16.72ZM17.21,18.9l1.22,2.65a1.53,1.53,0,0,0,.87.8c3.8,1.5,3.7.49,1.56,4.15a1.5,1.5,0,0,0-.16,1.2l.68,2.43a.52.52,0,0,1-.07.44.46.46,0,0,0-.07.16L20.48,34a5.55,5.55,0,0,0,0,2.05.53.53,0,0,1-.93.36L17.17,31.1c-.45-.88-2-.73-2.78-.85A13.67,13.67,0,0,1,17.21,18.9ZM27.79,41.2a13.69,13.69,0,0,1-13.14-9.92l1.28.11a.55.55,0,0,1,.36.18l2.38,5.32A1.53,1.53,0,0,0,21.48,36a7.77,7.77,0,0,1,0-1.7L22.2,31a1.53,1.53,0,0,0,.14-1.17l-.68-2.45a.48.48,0,0,1,.06-.4l1.43-2.41a1.54,1.54,0,0,0-.79-2.21l-2.71-1a.54.54,0,0,1-.31-.28l-1.41-3a13.71,13.71,0,0,1,14-3.59l-.46,2c0,.31-1.12.87-1.32,1.05A1.54,1.54,0,0,0,30,20l2.37,1.84c.34.19.17,1,.21,1.28a1.52,1.52,0,0,0,1.52,1.52h.76a.52.52,0,0,1,.48.3l.7,1.45a1.53,1.53,0,0,0,2.46.41c.16-.16.55-.65.81-.63l2.05-.1A13.7,13.7,0,0,1,27.79,41.2Zm6.59-13.74L31.3,26.37a1.51,1.51,0,0,0-1.52.31h0l-1.11,1-.2.1a1.8,1.8,0,0,0,0,3.21l.62.31a.83.83,0,0,1,.34.33l1.18,2.17a1.85,1.85,0,0,0,.52.59l.63.46a.81.81,0,0,1,.31.48l.14.65A1.81,1.81,0,0,0,34,37.39h.14a1.8,1.8,0,0,0,1.66-2l-.24-2.61.25-3.19A2.11,2.11,0,0,0,34.38,27.46Zm.4,8.06a.77.77,0,0,1-.19.58.74.74,0,0,1-.55.28.8.8,0,0,1-.84-.62l-.14-.65a1.81,1.81,0,0,0-.7-1.07l-.63-.47a.64.64,0,0,1-.23-.26l-1.18-2.17a1.78,1.78,0,0,0-.77-.74l-.62-.32a.79.79,0,0,1-.44-.71.77.77,0,0,1,.44-.71l.25-.13.11-.08,1.15-1a.52.52,0,0,1,.53-.1l3.08,1.09a1.11,1.11,0,0,1,.74,1.14l-.24,3.28Z" class="color231f20 svgShape"></path>
</svg>
