<svg xmlns="http://www.w3.org/2000/svg" enable-background="new 0 0 512 512" viewBox="0 0 512 512" id="SpaceCapsule">
  <linearGradient id="a" x1="58.992" x2="454.679" y1="527.89" y2="132.204" gradientUnits="userSpaceOnUse">
    <stop offset="0" stop-color="#a9a9a9" class="stopColorbe53ff svgShape"></stop>
    <stop offset="1" stop-color="#ffffff" class="stopColor6be2dd svgShape"></stop>
  </linearGradient>
  <path fill="url(#a)" d="M183.028,368.174h145.939c25.214,0,41.357-26.76,29.684-49.042l-33.927-64.829c-5.772-11.035-17.104-17.921-29.549-17.973l-77.566-0.453c-0.047,0-0.088,0-0.135,0c-12.461,0-23.803,6.839-29.627,17.869l-34.457,65.282C141.603,341.371,157.815,368.174,183.028,368.174z M162.822,324.004l34.457-65.282c3.966-7.521,11.701-12.185,20.185-12.185c0.031,0,0.062,0,0.094,0l77.566,0.453c8.495,0.031,16.219,4.731,20.159,12.258l33.927,64.829c7.961,15.212-3.078,33.437-20.242,33.437H183.028C165.803,357.514,154.793,339.209,162.822,324.004z M84.428,422.739c-11.436,0-20.742,9.301-20.742,20.737c0,11.436,9.307,20.742,20.742,20.742s20.737-9.307,20.737-20.742C105.165,432.04,95.864,422.739,84.428,422.739z M84.428,453.558c-5.559,0-10.082-4.523-10.082-10.082s4.523-10.077,10.082-10.077c5.559,0,10.077,4.518,10.077,10.077S89.987,453.558,84.428,453.558z M170.208,422.739c-11.436,0-20.737,9.301-20.737,20.737c0,11.436,9.301,20.742,20.737,20.742c11.435,0,20.742-9.307,20.742-20.742C190.95,432.04,181.643,422.739,170.208,422.739z M170.208,453.558c-5.559,0-10.077-4.523-10.077-10.082s4.518-10.077,10.077-10.077c5.559,0,10.082,4.518,10.082,10.077S175.767,453.558,170.208,453.558z M255.992,422.739c-11.436,0-20.742,9.301-20.742,20.737c0,11.436,9.307,20.742,20.742,20.742s20.737-9.307,20.737-20.742C276.729,432.04,267.428,422.739,255.992,422.739z M255.992,453.558c-5.559,0-10.082-4.523-10.082-10.082s4.523-10.077,10.082-10.077c5.559,0,10.077,4.518,10.077,10.077S261.551,453.558,255.992,453.558z M341.771,422.739c-11.436,0-20.737,9.301-20.737,20.737c0,11.436,9.301,20.742,20.737,20.742c11.435,0,20.742-9.307,20.742-20.742C362.513,432.04,353.207,422.739,341.771,422.739z M341.771,453.558c-5.559,0-10.077-4.523-10.077-10.082s4.518-10.077,10.077-10.077s10.082,4.518,10.082,10.077S347.33,453.558,341.771,453.558z M427.556,422.739c-11.436,0-20.742,9.301-20.742,20.737c0,11.436,9.307,20.742,20.742,20.742c11.435,0,20.737-9.307,20.737-20.742C448.293,432.04,438.991,422.739,427.556,422.739z M427.556,453.558c-5.559,0-10.082-4.523-10.082-10.082s4.523-10.077,10.082-10.077c5.559,0,10.077,4.518,10.077,10.077S433.115,453.558,427.556,453.558z M223.591,182.135c11.436,0,20.742-9.307,20.742-20.742s-9.307-20.737-20.742-20.737s-20.737,9.301-20.737,20.737S212.155,182.135,223.591,182.135z M223.591,151.316c5.559,0,10.082,4.518,10.082,10.077s-4.523,10.082-10.082,10.082s-10.077-4.523-10.077-10.082S218.032,151.316,223.591,151.316z M288.924,182.135c11.435,0,20.737-9.307,20.737-20.742s-9.301-20.737-20.737-20.737s-20.742,9.301-20.742,20.737S277.489,182.135,288.924,182.135z M288.924,151.316c5.559,0,10.077,4.518,10.077,10.077s-4.518,10.082-10.077,10.082s-10.082-4.523-10.082-10.082S283.365,151.316,288.924,151.316z M508.609,446.156c-18.345-35.018-20.736-39.583-169.497-323.554l0.676-93.475c0.118-15.516-12.372-28.142-27.894-28.196L202.281,0.573c-0.031,0-0.062,0-0.094,0c-15.329,0-27.873,12.445-27.982,27.785l-0.678,93.628c-41.187,78.08-134.04,254.107-170.09,322.448c-4.612,8.724-4.331,18.983,0.755,27.451c5.08,8.469,14.007,13.544,23.87,13.575l35.623,0.129v15.179h-6.819c-2.946,0-5.33,2.384-5.33,5.33c0,2.946,2.384,5.33,5.33,5.33H81.17c2.946,0,5.33-2.384,5.33-5.33c0-2.946-2.384-5.33-5.33-5.33h-6.824v-15.141l176.316,0.639v14.502h-6.824c-2.946,0-5.33,2.384-5.33,5.33c0,2.946,2.384,5.33,5.33,5.33h24.302c2.946,0,5.33-2.384,5.33-5.33c0-2.946-2.384-5.33-5.33-5.33h-6.819v-14.464l176.311,0.639v13.825h-6.819c-2.946,0-5.33,2.384-5.33,5.33c0,2.946,2.384,5.33,5.33,5.33h24.302c2.946,0,5.33-2.384,5.33-5.33c0-2.946-2.384-5.33-5.33-5.33h-6.824v-13.786c46.599,0.168,32.989,0.128,35.597,0.128C504.861,487.109,518.34,464.814,508.609,446.156z M142.297,204.044l227.852,0.779l102.157,195.003H39.02L142.297,204.044z M182.086,128.617c62.967,0.043,136.966,0.005,148.141,0l34.328,65.527l-216.644-0.741L182.086,128.617z M232.928,117.957h-13.95V75.853c0-3.847,3.128-6.975,6.975-6.975s6.975,3.128,6.975,6.975V117.957z M294.332,117.957h-13.955V75.853c0-3.847,3.133-6.975,6.98-6.975s6.975,3.128,6.975,6.975V117.957z M202.187,11.232c0.021,0,0.042,0,0.062,0l109.613,0.359c9.579,0.032,17.341,7.831,17.265,17.458l-0.643,88.907h-23.492V75.853c0-9.723-7.912-17.635-17.635-17.635c-9.728,0-17.64,7.912-17.64,17.635v42.104h-26.129V75.853c0-9.723-7.912-17.635-17.635-17.635s-17.635,7.912-17.635,17.635v42.104h-24.102l0.648-89.527C184.933,18.936,192.699,11.232,202.187,11.232z M483.89,476.45c-0.576,0-454.971-1.647-455.791-1.65c-12.985-0.044-21.314-13.887-15.235-25.39l20.533-38.923H477.89l21.272,40.605C505.192,462.667,496.833,476.45,483.89,476.45z"></path>
</svg>
