<svg xmlns="http://www.w3.org/2000/svg" enable-background="new 0 0 66 66" viewBox="0 0 66 66" id="MeteoriteRain">
  <path d="M42.2 16.1c-.4-.4-1-.4-1.4 0s-.4 1 0 1.4l3.6 3.6c.4.4 1 .4 1.4 0 .4-.4.4-1 0-1.4L42.2 16.1zM47.5 10.6c-.4-.4-1-.4-1.4 0-.4.4-.4 1 0 1.4l3.6 3.6c.4.4 1 .4 1.4 0 .4-.4.4-1 0-1.4L47.5 10.6zM35.8 5.7c-.4.4-.4 1 0 1.4l9.5 9.5c.4.4 1 .4 1.4 0 .4-.4.4-1 0-1.4l-9.5-9.5C36.8 5.3 36.2 5.3 35.8 5.7z" fill="#ffffff" class="color000000 svgShape"></path>
  <path d="M45.9 31.7c4.4 4.4 11.4 4.4 15.8 0 4.4-4.4 4.4-11.4 0-15.8-3-3-15.8-11.1-24.8-14.8-.5-.2-1.1 0-1.3.6-.2.5 0 1.1.6 1.3 9 3.7 21.6 11.8 24.2 14.3 3.6 3.6 3.6 9.4 0 13-3.6 3.6-9.4 3.6-13 0C44.8 27.7 36.7 15.1 33 6.1c-.2-.5-.8-.8-1.3-.6-.5.2-.8.8-.6 1.3C34.8 15.8 42.9 28.7 45.9 31.7zM12.1 16.1c-.4-.4-1-.4-1.4 0s-.4 1 0 1.4l3.6 3.6c.4.4 1 .4 1.4 0 .4-.4.4-1 0-1.4L12.1 16.1zM17.4 10.6c-.4-.4-1-.4-1.4 0-.4.4-.4 1 0 1.4l3.6 3.6c.4.4 1 .4 1.4 0 .4-.4.4-1 0-1.4L17.4 10.6zM5.7 5.7c-.4.4-.4 1 0 1.4l9.5 9.5c.4.4 1 .4 1.4 0 .4-.4.4-1 0-1.4L7.1 5.7C6.7 5.3 6.1 5.3 5.7 5.7z" fill="#ffffff" class="color000000 svgShape"></path>
  <path d="M15.9 31.7c4.4 4.4 11.4 4.4 15.8 0 4.4-4.4 4.4-11.4 0-15.8-3-3-15.8-11.1-24.8-14.8-.5-.2-1.1 0-1.3.6-.2.5 0 1.1.6 1.3 9 3.7 21.6 11.8 24.2 14.3 3.6 3.6 3.6 9.4 0 13-3.6 3.6-9.4 3.6-13 0C14.7 27.7 6.6 15.1 2.9 6.1 2.7 5.6 2.1 5.3 1.6 5.5 1.1 5.7.9 6.3 1.1 6.8 4.7 15.8 12.9 28.7 15.9 31.7zM12.1 46.2c-.4-.4-1-.4-1.4 0s-.4 1 0 1.4l3.6 3.6c.4.4 1 .4 1.4 0 .4-.4.4-1 0-1.4L12.1 46.2zM17.4 40.7c-.4-.4-1-.4-1.4 0-.4.4-.4 1 0 1.4l3.6 3.6c.4.4 1 .4 1.4 0 .4-.4.4-1 0-1.4L17.4 40.7zM5.7 35.8c-.4.4-.4 1 0 1.4l9.5 9.5c.4.4 1 .4 1.4 0 .4-.4.4-1 0-1.4l-9.5-9.5C6.7 35.4 6.1 35.4 5.7 35.8z" fill="#ffffff" class="color000000 svgShape"></path>
  <path d="M6.8 31.2c-.5-.2-1.1 0-1.3.6-.2.5 0 1.1.6 1.3 9 3.7 21.6 11.8 24.2 14.3 3.6 3.6 3.6 9.4 0 13-3.6 3.6-9.4 3.6-13 0C14.7 57.7 6.6 45.2 2.9 36.2c-.2-.5-.8-.8-1.3-.6-.5.2-.8.8-.6 1.3 3.7 9 11.8 21.8 14.8 24.8 4.4 4.4 11.4 4.4 15.8 0 4.4-4.4 4.4-11.4 0-15.8C28.7 42.9 15.8 34.8 6.8 31.2zM40.1 40.1c-.4.4-.4 1 0 1.4l8.4 8.4c.4.4 1 .4 1.4 0 .4-.4.4-1 0-1.4l-8.4-8.4C41.1 39.7 40.4 39.7 40.1 40.1z" fill="#ffffff" class="color000000 svgShape"></path>
  <path d="M62 47.4c-2.7-2.7-12.8-9.8-19.9-12.7-.5-.2-1.1 0-1.3.5-.2.5 0 1.1.5 1.3 6.8 2.8 16.7 9.7 19.3 12.3 3.2 3.2 3.2 8.5 0 11.8-3.2 3.2-8.5 3.2-11.8 0-2.6-2.6-9.5-12.5-12.3-19.3-.2-.5-.8-.8-1.3-.5-.5.2-.8.8-.5 1.3 2.9 7.1 10 17.2 12.7 19.9 4 4 10.6 4 14.6 0C66 58 66 51.4 62 47.4zM16.6 54.8c0 .9.5 1.8 1.5 2.5 1.9 1.4 5.6 2.5 8.3 2.5 1.3 0 2.3-.2 3-.7.8-.5 1.3-1.3 1.5-2.4.3-2.4-1.2-5.6-2.9-7.5-1.2-1.2-2.3-1.8-3.6-1.8-1.7 0-3.1 1.1-4.4 2.2C18.3 51 16.5 52.8 16.6 54.8zM23.4 53.5c.1 0 .7.1 1.1-.3.4-.4 1-.4 1.4 0 .4.4.4 1 0 1.4-.8.8-2 1.1-2.9.9-.5-.1-.9-.6-.8-1.2C22.3 53.7 22.8 53.4 23.4 53.5zM16.6 24.7c.1.9.5 1.8 1.5 2.4 1.9 1.4 5.6 2.5 8.3 2.5 1.3 0 2.3-.2 3-.7.8-.5 1.4-1.3 1.5-2.4.4-2.4-1.2-5.6-2.9-7.5-1.2-1.2-2.3-1.8-3.6-1.8-1.7 0-3.1 1.1-4.4 2.2C18.3 21 16.5 22.8 16.6 24.7zM22.5 24.4c.1-.5.6-.9 1.2-.8 0 0 .7.1 1.1-.3.4-.4 1-.4 1.4 0 .4.4.4 1 0 1.4-.8.8-2 1.1-2.9.9C22.8 25.5 22.4 25 22.5 24.4z" fill="#ffffff" class="color000000 svgShape"></path>
  <path d="M51.1 57c2.3 1.7 7.6 2.7 8.1-.6.2-1.6-.7-3.5-1.8-4.7-.8-.8-1.5-1.2-2.4-1.2-1.1 0-2.1.7-2.8 1.4C50.4 53.5 49 55.4 51.1 57zM46.7 24.7c0 .9.5 1.8 1.5 2.4 2.5 1.8 8.6 3.5 11.2 1.8.8-.5 1.4-1.3 1.5-2.4.4-2.4-1.2-5.6-2.9-7.5-1.2-1.2-2.3-1.8-3.6-1.8C51.5 17.2 46.5 22 46.7 24.7zM53.6 23.9c0 0 .7-.1.9-.7.2-.5.8-.7 1.3-.5.5.2.8.8.5 1.3-.5 1.3-1.8 1.8-2.4 1.9 0 0-.1 0-.1 0-.5 0-.9-.4-1-.9C52.7 24.5 53.1 24 53.6 23.9zM50.3 43.1c-.4-.4-1-.4-1.4 0s-.4 1 0 1.4l3.6 3.6c.4.4 1 .4 1.4 0 .4-.4.4-1 0-1.4L50.3 43.1zM43.8 49.6c-.4.4-.4 1 0 1.4l3.6 3.6c.4.4 1 .4 1.4 0 .4-.4.4-1 0-1.4l-3.6-3.6C44.8 49.2 44.2 49.2 43.8 49.6z" fill="#ffffff" class="color000000 svgShape"></path>
</svg>
