<svg xmlns="http://www.w3.org/2000/svg" enable-background="new 0 0 64 64" viewBox="0 0 64 64" id="Robot">
  <path d="M11 58c1.7 0 3-1.3 3-3 0-.6-.4-1-1-1s-1 .4-1 1c0 .6-.4 1-1 1s-1-.4-1-1 .4-1 1-1c.6 0 1-.4 1-1s-.4-1-1-1c-1.7 0-3 1.3-3 3S9.3 58 11 58zM32 58c1.7 0 3-1.3 3-3 0-.6-.4-1-1-1s-1 .4-1 1c0 .6-.4 1-1 1-.6 0-1-.4-1-1s.4-1 1-1c.6 0 1-.4 1-1s-.4-1-1-1c-1.7 0-3 1.3-3 3S30.3 58 32 58zM53 58c1.7 0 3-1.3 3-3 0-.6-.4-1-1-1s-1 .4-1 1c0 .6-.4 1-1 1s-1-.4-1-1 .4-1 1-1c.6 0 1-.4 1-1s-.4-1-1-1c-1.7 0-3 1.3-3 3S51.3 58 53 58z" fill="#ffffff" class="color000000 svgShape"></path>
  <path d="M58.2,39H52v-3c2.5,1.2,4.9,0.6,5.7,0.4c0.3-0.1,0.6-0.4,0.7-0.7c0.1-0.3,0-0.7-0.3-0.9l-3.5-3.5l0.7-0.7
	c0.4-0.4,0.4-1,0-1.4c-0.4-0.4-1-0.4-1.4,0l-0.7,0.7l-3.5-3.5C49.4,26,49,25.9,48.7,26c-0.3,0.1-0.6,0.3-0.7,0.7c-1.2,5.3,2,8,2,8
	V39h-9v-1.3c0-1.3-0.9-2.3-2-2.6v-4.6c0-0.6-0.4-1-1-1s-1,0.4-1,1V35h-2V23.9c0.3,0.1,1.7,0.1,2,0v2.5c0,0.6,0.4,1,1,1s1-0.4,1-1
	v-3.4c2.2-1.6,2-4.4,1.9-4.7l6.9-6.9l3.7-1.2c0.5-0.2,0.9-0.6,1.1-1.1l1.3-3.9c0.2-0.5-0.1-1.1-0.6-1.3C52.8,3.7,52.2,4,52,4.5
	l-1.3,3.8l-3.2,1.1l-1.9-2l1.1-3.2l3.8-1.3c0.5-0.2,0.8-0.7,0.6-1.3c-0.2-0.5-0.7-0.8-1.3-0.6l-3.9,1.3c-0.5,0.2-0.9,0.6-1.1,1.1
	l-1.2,3.7L36.7,14c-0.2,0-5.2-0.4-5.7,4.9c-0.2,1.6,0.8,3.1,2,4v12.2c-1.1,0.3-2,1.4-2,2.6V39H17V19h5c1.7,0,3-1.3,3-3V4
	c0-1.7-1.3-3-3-3c-0.6,0-1,0.4-1,1c0,0.6,0.5,1,1,1c0.5,0,1,0.4,1,1l0,11.2c0,1.4-0.4,1.8-1,1.8H6c-0.6,0-1-0.4-1-1V4
	c0-0.6,0.4-1,1-1h12.3c0.6,0,1-0.4,1-1s-0.4-1-1-1H6C4.3,1,3,2.3,3,4v12c0,1.7,1.3,3,3,3h5v13.6c0,0.6,0.4,1,1,1s1-0.4,1-1V19h2v20
	h-2v-3c0-0.6-0.4-1-1-1s-1,0.4-1,1v3H5.8C3.1,39,1,41.1,1,43.8v11.1c0,0.6,0.4,1,1,1h2.2c0.1,0.6,0.2,1.1,0.4,1.6c0,0-1,0.5-0.5,1.5
	c0.5,0.9,1.5,0.3,1.5,0.3c0.3,0.4,0.7,0.8,1.2,1.2c0,0-0.8,0.9,0.3,1.5c1,0.5,1.5-0.5,1.5-0.5c0.5,0.2,1,0.3,1.6,0.4
	c0,0-0.1,1.2,1,1.2c1.1,0,1-1.2,1-1.2c0.6-0.1,1.1-0.2,1.6-0.4c0,0,0.4,1.1,1.5,0.5c1.1-0.6,0.3-1.5,0.3-1.5
	c0.4-0.3,0.8-0.7,1.2-1.2c0,0,0.9,0.7,1.5-0.3c0.6-1-0.5-1.5-0.5-1.5c0.2-0.5,0.3-1,0.4-1.6h7.1c0.1,0.6,0.2,1.1,0.4,1.6
	c0,0-1,0.5-0.5,1.5c0.5,0.9,1.5,0.3,1.5,0.3c0.3,0.4,0.7,0.8,1.2,1.2c0,0-0.7,1,0.3,1.5c0.8,0.4,1.5-0.5,1.5-0.5
	c0.5,0.2,1,0.3,1.6,0.4c0,0-0.2,1.2,1,1.2c1.1,0,1-1.2,1-1.2c0.6-0.1,1.1-0.2,1.6-0.4c0,0,0.6,1,1.5,0.5c0.9-0.5,0.3-1.5,0.3-1.5
	c0.4-0.3,0.8-0.7,1.2-1.2c0,0,1.1,0.7,1.5-0.3c0.4-1-0.5-1.5-0.5-1.5c0.2-0.5,0.3-1,0.4-1.6H46c0.1,0.6,0.2,1.1,0.4,1.6
	c0,0-1,0.5-0.5,1.5c0.4,0.8,1.5,0.3,1.5,0.3c0.3,0.4,0.7,0.8,1.2,1.2c0,0-0.7,1,0.3,1.5c0.8,0.5,1.5-0.5,1.5-0.5
	c0.5,0.2,1,0.3,1.6,0.4c0,0-0.1,1.2,1,1.2c1.1,0,1-1.2,1-1.2c0.6-0.1,1.1-0.2,1.6-0.4c0,0,0.6,1.1,1.4,0.5c0.8-0.6,0.3-1.5,0.3-1.5
	c0.4-0.3,0.8-0.7,1.2-1.2c0,0,1.1,0.6,1.5-0.3c0.5-1-0.5-1.5-0.5-1.5c0.2-0.5,0.3-1,0.4-1.6H62c0.6,0,1-0.4,1-1v-2.5
	c0-0.6-0.4-1-1-1s-1,0.4-1,1v1.5h-1.2c-0.1-0.6-0.2-1.1-0.4-1.6c0,0,1.1-0.5,0.5-1.5c-0.6-0.9-1.5-0.3-1.5-0.3
	c-0.3-0.4-0.7-0.8-1.2-1.2c0,0,0.6-1.1-0.3-1.5c-0.9-0.5-1.4,0.5-1.4,0.5c-0.5-0.2-1-0.3-1.6-0.4c0,0,0-1.2-1-1.2
	c-1.1,0-1,1.2-1,1.2c-0.6,0.1-1.1,0.2-1.6,0.4c0,0-0.6-1-1.5-0.5c-1,0.6-0.3,1.5-0.3,1.5c-0.4,0.3-0.8,0.7-1.2,1.2
	c0,0-0.9-0.7-1.5,0.3c-0.6,1,0.5,1.5,0.5,1.5c-0.2,0.5-0.3,1-0.4,1.6h-7.1c-0.1-0.6-0.2-1.1-0.4-1.6c0,0,1.1-0.5,0.5-1.5
	c-0.6-0.9-1.5-0.3-1.5-0.3c-0.3-0.4-0.7-0.8-1.2-1.2c0,0,0.7-0.9-0.3-1.5c-0.9-0.6-1.5,0.5-1.5,0.5c-0.5-0.2-1-0.3-1.6-0.4
	c0,0,0.1-1.1-1-1.2c-1,0-1,1.2-1,1.2c-0.6,0.1-1.1,0.2-1.6,0.4c0,0-0.6-1-1.5-0.5c-0.9,0.6-0.3,1.5-0.3,1.5
	c-0.4,0.3-0.8,0.7-1.2,1.2c0,0-0.9-0.7-1.5,0.3c-0.6,0.9,0.5,1.5,0.5,1.5c-0.2,0.5-0.3,1-0.4,1.6H18c-0.1-0.6-0.2-1.1-0.4-1.6
	c0,0,1.2-0.5,0.5-1.5c-0.7-0.9-1.5-0.3-1.5-0.3c-0.3-0.4-0.7-0.8-1.2-1.2c0,0,0.7-1-0.3-1.5c-0.9-0.5-1.5,0.5-1.5,0.5
	c-0.5-0.2-1-0.3-1.6-0.4c0,0,0.1-1.2-1-1.2c-1.2,0-1,1.2-1,1.2c-0.6,0.1-1.1,0.2-1.6,0.4c0,0-0.5-1-1.5-0.5c-1,0.5-0.3,1.5-0.3,1.5
	c-0.4,0.3-0.8,0.7-1.2,1.2c0,0-1-0.7-1.5,0.3c-0.5,0.9,0.5,1.5,0.5,1.5c-0.2,0.5-0.3,1-0.4,1.6H3V43.8C3,42.3,4.3,41,5.8,41h52.4
	c1.5,0,2.8,1.3,2.8,2.8v4c0,0.6,0.4,1,1,1s1-0.4,1-1v-4C63,41.1,60.9,39,58.2,39z M52.9,49.9c2.7,0,5,2.2,5,5c0,0,0,0,0,0
	c0,0,0,0,0,0c0,2.7-2.3,5-5,5c-2.8,0-5-2.2-5-5S50.2,49.9,52.9,49.9z M32,49.9c2.8,0,5,2.2,5,5s-2.2,5-5,5s-5-2.2-5-5
	S29.2,49.9,32,49.9z M11.1,49.9c2.8,0,5,2.2,5,5s-2.2,5-5,5s-5-2.2-5-5S8.3,49.9,11.1,49.9z M44.5,9.1l1.4,1.4l-5.7,5.7
	c-0.4-0.6-0.9-1-1.4-1.4L44.5,9.1z M36,16c1.7,0,3,1.3,3,3s-1.3,3-3,3s-3-1.3-3-3S34.3,16,36,16z M39,39h-6v-1.3
	c0-0.4,0.3-0.7,0.7-0.7h4.5c0.4,0,0.7,0.3,0.7,0.7V39z M49.6,29l5.8,5.8c-1.5,0-3-0.6-4.1-1.7C50.1,32,49.5,30.5,49.6,29z" fill="#ffffff" class="color000000 svgShape"></path>
  <path d="M11 10c0 .9.2 1.7.7 2.5.3.5.9.6 1.4.4.5-.3.6-.9.4-1.4C13.1 11 13 10.5 13 10c0-1.7 1.3-3 3-3s3 1.3 3 3-1.3 3-3 3c-.6 0-1 .4-1 1s.4 1 1 1c2.8 0 5-2.2 5-5s-2.2-5-5-5S11 7.2 11 10zM9 6c0-.6-.4-1-1-1S7 5.4 7 6v2c0 .6.4 1 1 1s1-.4 1-1V6zM8 11c-.6 0-1 .4-1 1v2c0 .6.4 1 1 1s1-.4 1-1v-2C9 11.4 8.6 11 8 11zM56.7 30.5c.6.5 1.2.2 1.4 0 .6-.6.9-1.3.9-2.1 0-.8-.3-1.6-.9-2.1-1.2-1.2-3.1-1.2-4.2 0-.4.4-.4 1 0 1.4s1 .4 1.4 0 1-.4 1.4 0c.2.2.6.8 0 1.4C56.3 29.4 56.3 30.1 56.7 30.5z" fill="#ffffff" class="color000000 svgShape"></path>
  <path d="M51.1 24.8c.4.4 1 .4 1.4 0 1.9-1.9 5.1-1.9 7.1 0 1.9 1.9 1.9 5.1 0 7.1-.4.4-.4 1 0 1.4.6.5 1.2.2 1.4 0 2.7-2.7 2.7-7.2 0-9.9-2.7-2.7-7.2-2.7-9.9 0C50.7 23.8 50.7 24.4 51.1 24.8zM26.3 43c-.6 0-1 .4-1 1s.4 1 1 1H58c.6 0 1-.4 1-1s-.4-1-1-1H26.3zM20 43c-.6 0-1 .4-1 1s.4 1 1 1h2c.6 0 1-.4 1-1s-.4-1-1-1H20zM6 43c-.6 0-1 .4-1 1s.4 1 1 1h10.3c.6 0 1-.4 1-1s-.4-1-1-1H6z" fill="#ffffff" class="color000000 svgShape"></path>
  <circle cx="16" cy="10" r="1" fill="#ffffff" class="color000000 svgShape"></circle>
  <circle cx="36" cy="19" r="1" fill="#ffffff" class="color000000 svgShape"></circle>
</svg>
