<svg xmlns="http://www.w3.org/2000/svg" enable-background="new 0 0 100 100" viewBox="0 0 100 100" id="planet">
  <path d="M32.33,61.856c-0.36,1.044,0.195,2.183,1.239,2.542c3.961,1.364,8.142,2.543,12.428,3.504
		c0.547,0.122,1.102,0.228,1.653,0.343c-0.603,0.321-1.208,0.655-1.808,0.956c-0.986,0.497-1.384,1.699-0.887,2.686
		c0.352,0.698,1.056,1.101,1.788,1.101c0.302,0,0.608-0.069,0.897-0.214c2.04-1.027,4.107-2.177,6.161-3.401
		c4.524,0.699,8.94,1.114,13.129,1.214c0.017,0,0.032,0,0.049,0c1.082,0,1.973-0.864,1.998-1.952
		c0.026-1.104-0.847-2.021-1.951-2.047c-2.57-0.061-5.238-0.257-7.96-0.556c0.498-0.338,0.988-0.676,1.47-1.016
		c3.65-2.56,7.094-5.302,10.235-8.15c0.818-0.742,0.88-2.006,0.138-2.825c-0.741-0.818-2.006-0.88-2.825-0.138
		c-3.018,2.736-6.33,5.374-9.848,7.841c-1.632,1.15-3.36,2.283-5.241,3.447c-2.047-0.349-4.105-0.744-6.13-1.194
		c-4.139-0.928-8.175-2.066-11.996-3.382C33.825,60.255,32.689,60.812,32.33,61.856z" fill="#ffffff" class="color000000 svgShape"></path>
  <path d="M14.072,75.209c2,2.852,5.647,4.316,10.551,4.316c1.87,0,3.933-0.226,6.146-0.657c5.509,3.681,12.122,5.833,19.23,5.833
		c11.697,0,22.052-5.823,28.342-14.715c9.477-1.352,15.316-4.866,16.458-9.952c1.141-5.092-2.636-10.761-10.625-16.022
		c-0.134-0.768-0.291-1.527-0.475-2.277c4.185-7.016,4.987-13.016,2.228-16.951c-2.766-3.943-8.679-5.225-16.698-3.654
		C63.721,17.45,57.108,15.298,50,15.298c-11.698,0-22.055,5.824-28.345,14.719C12.177,31.37,6.339,34.883,5.2,39.969
		c-1.142,5.094,2.639,10.765,10.626,16.023c0.134,0.766,0.29,1.525,0.474,2.273C12.114,65.275,11.312,71.273,14.072,75.209z
		 M17.348,72.912c-1.42-2.024-1.144-5.347,0.692-9.395c1.935,4.558,4.822,8.616,8.404,11.934
		C21.995,75.809,18.769,74.94,17.348,72.912z M90.897,59.159c-0.618,2.753-4.202,4.997-9.828,6.273
		c2.32-4.652,3.633-9.891,3.633-15.433c0-0.241-0.013-0.478-0.018-0.717C89.231,52.837,91.515,56.399,90.897,59.159z M82.652,27.082
		c1.419,2.024,1.143,5.349-0.692,9.401c-1.935-4.559-4.823-8.617-8.405-11.935C78.003,24.184,81.229,25.053,82.652,27.082z
		 M50,19.298c13.833,0,25.553,9.196,29.38,21.795c-0.328,0.494-0.669,0.996-1.046,1.526c-1.778,2.499-3.949,5.066-6.452,7.631
		c-0.771,0.791-0.756,2.057,0.035,2.829c0.389,0.379,0.893,0.568,1.396,0.568c0.52,0,1.04-0.202,1.432-0.603
		c2.158-2.212,4.073-4.431,5.742-6.622c0.137,1.175,0.215,2.367,0.215,3.578c0,5.961-1.713,11.526-4.665,16.241
		c-1.214,0.132-2.47,0.239-3.779,0.299c-1.104,0.051-1.957,0.986-1.906,2.09c0.05,1.072,0.934,1.908,1.996,1.908
		c0.031,0,0.063,0,0.094-0.002c0.129-0.006,0.251-0.018,0.379-0.025C67.198,76.763,59.051,80.702,50,80.702
		c-4.933,0-9.593-1.176-13.727-3.252c2.076-0.652,4.22-1.435,6.431-2.378c1.017-0.433,1.489-1.608,1.056-2.624
		s-1.608-1.489-2.624-1.056c-3.359,1.432-6.543,2.491-9.506,3.193c-5.175-3.877-9.087-9.349-11.01-15.678
		c0.013-0.02,0.026-0.041,0.04-0.06c2.458,1.313,5.135,2.564,8.007,3.722c0.245,0.099,0.498,0.146,0.747,0.146
		c0.792,0,1.541-0.473,1.855-1.252c0.413-1.024-0.082-2.189-1.106-2.603c-3.346-1.35-6.423-2.821-9.156-4.378
		c-0.511-0.287-1.005-0.581-1.49-0.877C19.377,52.42,19.298,51.22,19.298,50C19.298,33.071,33.07,19.298,50,19.298z M9.103,40.843
		c0.617-2.752,4.2-4.996,9.827-6.273C16.61,39.222,15.298,44.459,15.298,50c0,0.242,0.013,0.48,0.018,0.72
		C10.769,47.166,8.485,43.604,9.103,40.843z" fill="#ffffff" class="color000000 svgShape"></path>
  <path d="M62.032 37.062c2.83 0 5.133-2.303 5.133-5.133 0-2.831-2.303-5.133-5.133-5.133-.179 0-.354.009-.526.027-1.099.111-1.899 1.092-1.789 2.19.111 1.099 1.073 1.906 2.191 1.789.633-.063 1.257.46 1.257 1.127 0 .625-.508 1.133-1.133 1.133-.512 0-.962-.344-1.094-.836-.286-1.066-1.38-1.699-2.45-1.413-1.066.287-1.699 1.383-1.413 2.45C57.676 35.5 59.714 37.062 62.032 37.062zM31.424 53.06c.298.157.616.231.931.231.719 0 1.413-.389 1.771-1.068.515-.977.14-2.187-.837-2.702-.519-.272-.939-.689-1.221-1.207-.378-.696-.463-1.498-.238-2.257.225-.76.732-1.387 1.429-1.766 1.439-.783 3.243-.246 4.023 1.19.64 1.177.41 2.643-.56 3.565-.8.761-.831 2.027-.07 2.827.763.801 2.027.832 2.828.071 2.277-2.167 2.818-5.61 1.316-8.374-.889-1.635-2.361-2.826-4.146-3.354-1.783-.527-3.666-.328-5.303.56-1.635.889-2.826 2.361-3.354 4.146-.527 1.785-.329 3.668.56 5.301C29.212 51.437 30.204 52.417 31.424 53.06z" fill="#ffffff" class="color000000 svgShape"></path>
</svg>
