<svg xmlns="http://www.w3.org/2000/svg" viewBox="0 0 64 64" id="Comet">
  <path d="M27.72 21.37L11.18 31a1 1 0 0 0 .5 1.87 1 1 0 0 0 .51-.14L28.73 23.1a1 1 0 0 0-1-1.73zM45.65 28.07L35.87 46.35a1 1 0 0 0 .41 1.36 1 1 0 0 0 .47.11 1 1 0 0 0 .89-.52L47.42 29a1 1 0 0 0-1.77-.94zM54.52 22.61a1 1 0 0 0 1.35-.41l4.77-8.9a1 1 0 1 0-1.77-1l-4.76 8.91A1 1 0 0 0 54.52 22.61zM52 27.38a1 1 0 0 0-1.35.41l-7.51 14a1 1 0 0 0 .41 1.36 1.05 1.05 0 0 0 .48.11 1 1 0 0 0 .88-.52l7.5-14A1 1 0 0 0 52 27.38zM41.51 46.94a1 1 0 0 0-1.36.41l-4.28 8a1 1 0 0 0 .41 1.36 1 1 0 0 0 .47.11 1 1 0 0 0 .89-.52l4.28-8A1 1 0 0 0 41.51 46.94zM61.07 19.58a1 1 0 0 0-1.35.41L52.59 33.31A1 1 0 0 0 53 34.66a1 1 0 0 0 .48.12 1 1 0 0 0 .88-.53l7.12-13.31A1 1 0 0 0 61.07 19.58zM50 40.21a1 1 0 0 0-1.35.41L41.87 53.35a1 1 0 0 0 .41 1.36 1 1 0 0 0 .47.11 1 1 0 0 0 .89-.52l6.8-12.73A1 1 0 0 0 50 40.21zM37.4 12.21a1 1 0 0 0 1.37.36L52.26 4.69a1 1 0 1 0-1-1.73L37.76 10.84A1 1 0 0 0 37.4 12.21zM32 14.2L21 20.6A1 1 0 0 0 20.69 22a1 1 0 0 0 .86.49 1 1 0 0 0 .5-.13l11-6.4a1 1 0 0 0 .36-1.37A1 1 0 0 0 32 14.2zM17 24.12a1 1 0 0 0-1.36-.36L3.18 31a1 1 0 0 0 .5 1.87 1 1 0 0 0 .51-.14l12.44-7.27A1 1 0 0 0 17 24.12zM27 14.43a1 1 0 0 0 .51-.13L40.89 6.49a1 1 0 1 0-1-1.72l-13.36 7.8a1 1 0 0 0 .5 1.86zM5.68 26.9a1 1 0 0 0 .51-.14l14.27-8.34a1 1 0 0 0 .36-1.36 1 1 0 0 0-1.37-.36L5.18 25a1 1 0 0 0 .5 1.87zM14.79 43.29A6 6 0 1 0 19 45 6 6 0 0 0 14.79 43.29zm-2.33 9.24a1 1 0 0 1-.7.29 1 1 0 0 1-.39-.07 1 1 0 0 1-.32-.22 1 1 0 0 1-.29-.71 1 1 0 0 1 .07-.38 1 1 0 0 1 .22-.32.87.87 0 0 1 .32-.22 1 1 0 0 1 .77 0 .87.87 0 0 1 .32.22 1 1 0 0 1 0 1.41zm.29-3.71a2 2 0 1 1 2-2A2 2 0 0 1 12.75 48.82zm4.71 4.71a.64.64 0 0 1-.15.13l-.17.09-.19.06-.2 0a1 1 0 0 1-.7-.3 1 1 0 0 1-.22-1.09.87.87 0 0 1 .22-.32 1 1 0 0 1 .9-.28l.19.06.17.09a.64.64 0 0 1 .15.13.87.87 0 0 1 .22.32 1 1 0 0 1-.22 1.09zM18.74 48l-.06.19-.09.17a1.39 1.39 0 0 1-.28.28l-.17.09-.19.06-.2 0-.19 0-.19-.06-.17-.09a1.39 1.39 0 0 1-.28-.28l-.09-.17L16.77 48a1 1 0 0 1 0-.39l.06-.19.09-.17a.64.64 0 0 1 .13-.15 1 1 0 0 1 .9-.28l.19.06.17.09a1.39 1.39 0 0 1 .28.28l.09.17.06.19a1 1 0 0 1 0 .39z" fill="#ffffff" class="color000000 svgShape"></path>
  <path d="M60.46,3.12A1,1,0,0,0,59.19,3L9.08,37.49a12.84,12.84,0,0,0-6.48,9A12.35,12.35,0,0,0,5.44,56.88c.19.22.4.44.61.65s.43.41.65.61a12.26,12.26,0,0,0,8.11,3,13.13,13.13,0,0,0,2.24-.2,12.87,12.87,0,0,0,9-6.48L60.58,4.39A1,1,0,0,0,60.46,3.12Zm-40,51.82a8,8,0,1,1,2.34-5.66A7.95,7.95,0,0,1,20.45,54.94Z" fill="#ffffff" class="color000000 svgShape"></path>
</svg>
